<?xml version="1.0" encoding="utf-8"?>
<!-- Generator: Adobe Illustrator 19.2.1, SVG Export Plug-In . SVG Version: 6.00 Build 0)  -->
<svg version="1.1" id="Ebene_1" xmlns="http://www.w3.org/2000/svg" xmlns:xlink="http://www.w3.org/1999/xlink" x="0px" y="0px"
	 viewBox="0 0 547.6 385.5" style="enable-background:new 0 0 547.6 385.5;" xml:space="preserve">
<g id="Hintergrund__x2B__back_xA0_Bild_1_">
	<path d="M543.2,216c-0.4-0.4-1.1-0.8-1.7-0.8c-1.4-0.1-2.9-0.2-4.2,0.1c-4.4,1.1-8.8,2.5-13.2,3.5c-1.8,0.4-3.9,0.5-5.7,0.1
		c-3.5-0.7-7-1.7-10.5-2.6c-2.8-0.8-5.5-1.8-8.3-2.4c-3.3-0.6-5.7-2.3-7.9-4.6c-1.9-1.9-3.8-3.9-6-5.6c-4.9-3.9-7.5-9.4-10.5-14.2
		c1.4-3.1,2.7-5.8,4-8.7c2,0.4,3.8,0.8,5.6,1c2.9,0.4,5.6-0.5,7.8-2.5c1.5-1.3,1.9-3.1,1.4-5c-0.4-1.6-1.3-3-2.9-3.2
		c-3-0.4-6.1-0.4-8.6,1.8c-1.2,1.1-2.2,2.3-3.3,3.5c-0.7,0.8-1.3,1.1-2.3,0.8c-2-0.5-3.9-0.6-6.1,0.7c0.3-0.9,0.5-1.3,0.6-1.7
		c3.1-7.7,6.1-15.5,9.2-23.2c0.2-0.6,0.4-1.2,0.6-1.8c0.8-2.9,0.5-5.7-1.2-8.3c-2-3.1-4.9-5-8.4-6.1c0.2-0.8,0.4-1.5,0.5-2.3
		c0.3-2.9,0.6-5.9,0.8-8.8c0.2-2.6-1.1-4.2-3.6-5c-0.6-0.2-1.2-0.5-1.6-0.6c0.4-2.2,1-4.2,1.1-6.2c0.2-2.2-0.9-4.1-2.3-5.9
		c-1.4-1.8-3.5-2-5.5-2.7c0.6-1.1,1.1-2,1.5-2.9c0.5-1.1,1-2.2,1.2-3.4c0.8-4.4-1.4-7.6-5.8-8.3c-1.4-0.2-2.9-0.1-4.3-0.1
		c-1.3,0-2.5,0.1-3.3,0.2c-2.8-4-5.3-7.7-8-11.2c-2.5-3.2-5.2-6.3-7.2-9.9c-1.2-2.2-3.2-3.9-5.6-4.7c-3.9-1.4-7.9-2.7-12.1-2.4
		c-2.8,0.2-4.9-0.5-7.2-2.2c-4.2-3.1-9.3-4.2-14.2-5.6c-1.3-0.4-2.7-0.5-4-0.6c-1.9-0.2-3.7,0.3-5.2,1.4c-1,0.7-2.2,1.4-3,2.4
		c-1.4,1.7-2.9,2-4.9,1.2c-0.7-0.3-1.5-0.5-2.3-0.7c-2.2-0.5-4.3-1.3-6.5-1.5c-3.5-0.5-6.9,0.1-9.4,3c-1.6,1.8-3.2,3.5-4.9,5.2
		c-3.3-0.5-6.8-1.1-10.3-1.5c-10.4-1.5-20.8-2.7-31.3-2.7c-8.9,0-17.8-0.2-26.6-0.5c-18.9-0.7-37.8-0.2-56.6,0.4
		c-9.9,0.3-19.8-0.1-29.7-1.1c-3.1-0.3-5.9-1.5-8.3-3.4c-0.9-0.7-1.7-1.5-2.2-2.5c-0.7-1.4-1.2-3-1.8-4.5c-2.2-5.9-2.5-12-2.5-18.2
		c0-0.4,0.1-0.8,0.2-1.5c1,1.8,1.2,2,1.1,3.8c-0.1,2.7,0.8,5.1,2.3,7.1c1.4,1.9,2.9,3.8,5.4,4.1c3.3,0.4,6.6,0.2,9.5-1.6
		c3.4-2.1,5.4-5.2,6-9.1c0.5-3.7,2.6-6.1,5.8-7.7c4.4-2.1,8.7-1.2,13.1-0.2c0.5,0.1,0.9,0.6,1.2,1c1.8,2.6,3.5,5.4,4.4,8.5
		c1.4,4.5,2.9,9,4.2,13.5c0.8,2.9,2.6,4.5,5.6,4.7c0.4,0,0.8,0.1,1.2,0.1c2.6-0.2,5.3-0.2,7.8-0.7c1.8-0.3,1.8-0.9,1.9-2.7
		c0.1-5.1-0.6-10-1.4-15c-0.4-2.8-0.8-5.7-1.1-8.5c-0.2-2.1-0.2-4.1-0.5-6.2c-0.7-5.5-3.5-9.4-8.8-11.2c-6.1-2.1-12.1-4.2-18.3-5.7
		c-11.6-2.8-23.6-3.4-35.5-3.7C183.1,0,175.6,0.1,168,0c-14,0-28,0-41.9,1.4c-13,1.3-26,2-39,3C80.6,4.9,74,5.4,67.5,6
		c-15,1.4-29.9,2.8-44.9,4.2c-2.5,0.2-5.1,0.4-7.6,0.9c-4.8,1.1-8.8,3.1-9.2,8.8c0,0.1-0.1,0.2-0.1,0.2c-1.7,7-3.2,14-2.7,21.3
		c0,0.2,0,0.5,0,0.7c-0.6,7.7-1.3,15.5-1.9,23.2C0.6,72.1,0,78.9,0,85.6c-0.1,13,0.5,26.1,2.1,39c1,7.9,1.5,15.9,2.4,23.9
		c0.6,5.2,1.7,10.3,2.3,15.4c1.3,10.5,3.8,20.7,8,30.5c0.8,1.8,1.7,3.6,2.6,5.4c0.6,1.1,1.9,2,1.3,3.6c-0.1,0.2,0.2,0.6,0.4,0.8
		c1.6,1.8,3.2,3.5,5.9,3.6c4.6,0,9.1,0.4,13.7,0.3c20.5-0.2,40.9-0.6,61.4-0.7c15.7-0.1,31.4,0.2,47,0.3c9.3,0,18.6,0,27.9,0
		c4.2,0,8.5,0,12.7,0c4.1,0,8.3,0.1,12.4-0.1c9-0.6,18-1.5,26.9-2.9c4.5-0.7,9-1.6,13.5-2.2c2.5-0.3,3.9-1.5,4.9-3.6
		c3.5-7.4,6-15.2,7.3-23.2c0.8-4.6,1.2-9.2,2.3-13.7c1.3-5.7,1.2-11.2,0.1-16.9c-0.6-3-1.3-3.6-4.3-3.6c-0.6,0-1.1,0-1.7,0
		c-3.1,0-4.7,1.2-5.6,4.2c-0.6,2.1-1.3,4.3-1.9,6.4c-0.7,2.5-1.5,4.9-2,7.4c-0.8,4.1-1.5,8.2-2.2,12.3c-0.5,2.9-1.7,5.5-3.4,7.9
		c-0.6,0.9-1.5,1.8-2.4,2.2c-2.3,1-4.8,2.1-7.2,2.4c-10.1,1.4-20,3.3-30.2,4.2c-11.1,1-22.2,1.9-33.3,2c-8.8,0.1-17.6-0.1-26.4-0.2
		c-0.4,0-0.9-0.1-1.8-0.2c2-1.8,4.1-2.6,6.2-3.1c4.4-1.1,8.8-1.7,13.3-1.5c3.5,0.2,7,0.7,10.5,1.1c5.1,0.5,10.1,2,15.2,1.8
		c4-0.2,8-0.2,12-0.7c2.7-0.3,5.4-0.9,7.4-3c3.5-3.8,4.3-10.2,1.8-14.7c-1.3-2.3-3.2-3.3-5.8-2.9c-1.6,0.3-3.2,0.9-4.8,1.5
		c-0.6,0.2-1.1,0.4-1.9,0.7c-1.1-6.7-1.5-13.2-0.1-19.7c0.3-1.3,1.1-2.8,2.2-3.6c2-1.6,4.1-3.2,6.5-4c4.9-1.8,9.7-3.8,14.9-4.4
		c9.4-1.1,18.8-2.2,28.2-2.8c10.2-0.7,20.5-0.7,30.7-1c11.3-0.4,22.5-0.7,33.8-1.1c13.1-0.5,26.2-1.2,39.3-1.9
		c4.4-0.2,8.8-0.5,13.2-0.7c1.2-0.1,2.3-0.1,3.7-0.2c-0.2,0.5-0.3,0.7-0.4,0.9c-1.7,2.6-1.7,3.9,0.1,6.3c0.7,1,1.5,1.9,2.4,2.7
		c2.9,2.4,6.2,3.8,9.9,4.6c0.9,0.2,1.8,0.4,2.8,0.6c-1.3,2.1-2.7,4-3.8,5.9c-0.5,0.9-1.1,1.9-1.1,2.9c-0.1,3,0.6,5.9,2.5,8.3
		c1.4,1.9,3.3,3,5.8,2.9c2.6-0.1,5.3-0.2,7.9-0.4c1.7-0.1,3.4-0.5,5.3-0.8c0.9,3.2,1.8,6.2,2.7,9.5c-0.9,0.1-1.5,0.1-2.1,0.2
		c-1.3,0.1-2.8,0.1-4,0.5c-2.4,0.8-4.7,0.5-7.1,0c-1.2-0.3-2.3-0.5-3.5-0.8c-4.1-1-7.7,0-10.9,2.8c-2.1,1.8-2.9,4-2.4,6.6
		c0.2,0.9,0.4,1.7,0.7,2.5c3,7.9,13.4,11,20.2,6c0.5-0.4,1.1-0.7,1.5-1.2c0.9-0.9,1.8-0.8,3-0.5c4.3,0.8,8.4,2.8,12.9,2.5
		c1.1-0.1,1.5,0.7,1.9,1.5c0.7,1.7,1.3,3.4,2.2,5c0.6,1.2,1.5,2.5,2.5,3.1c3.3,2,6.9,3.2,11,2.7c2.5-0.3,5.1-0.5,7.7-0.7
		c1.7,3.2,3.5,6.2,4.1,9.8c0.2,1.1,0.1,2-0.5,3c-1.4,2.6-2.8,5.2-4.1,7.9c-4,7.9-8.1,15.8-13.3,23c-6,8.3-9.8,17.6-12.3,27.4
		c-1.1,4.5-1.4,9-1.6,13.5c-0.1,2.8,1.3,4.4,3.9,4.8c0.9,0.2,1.7,0.4,2.6,0.6c2.9,0.6,6.4-1.3,7.2-3.9c0.5-1.6,1-3.2,1.4-4.8
		c1.8-7.4,4.5-14.5,7.9-21.3c3.6-7.1,8.7-13.2,13.3-19.6c1.4-1.8,3-3.5,4.6-5.4c0.2,0.6,0.3,1,0.4,1.4c2,9.4,2.4,18.9,1.5,28.4
		c-1,9.6-2.8,19.1-4.2,28.7c-0.2,1.5-0.9,2.2-2.3,2.7c-4.2,1.5-8.4,3.2-12.5,4.8c-3.9,1.5-8,1.5-12,1.1c-4.9-0.5-9.8-1.6-14.5-2.9
		c-2.3-0.7-4,0.2-4.9,2.3c-1.2,2.8-1.8,5.8-1.6,8.9c0.1,1.5,0.8,2.6,2,3.4c1.8,1.2,3.8,2,6,2.4c4.2,0.8,8.3,1.7,12.5,2.4
		c2.6,0.4,5.3,0.9,7.8,0.7c4.4-0.5,8.9-0.8,13.2-2.3c0.5-0.2,1-0.1,1.6-0.1c-0.2,1.3-0.3,2.3-0.5,3.3c-1.4,7.1-1.2,14.2-0.6,21.3
		c1,10.9,5.1,20.7,10.4,30.2c0.3,0.6,0.8,1.2,1.3,1.7c2.5,3.2,6,5,9.5,6.8c1.6,0.8,3.4,1.4,5.2,1.7c5.3,0.8,9.6-4,8.5-9.3
		c-0.5-2.3-1.6-4.3-3.1-6.1c-1.8-2.2-3.6-4.3-5.1-6.6c-7.8-12.1-10.6-25.5-9.8-39.8c0.2-2.5,0.3-4.9,0.5-7c3.2-1.9,6.1-3.5,9-5.2
		c1.1-0.6,2.3-1.2,3.4-1.8c9.5-5.3,17-12.5,21.3-22.6c1.1-2.5,2-5.1,3.2-7.5c2.6-5.2,4.1-10.8,5.1-16.4c1.9-9.9,1.3-19.7-0.8-29.5
		c-0.3-1.4-0.6-2.9-1-4.6c4.9,2.5,9.2,5.4,14.3,6.9c6,1.7,12,2.6,18.2,2c4.9-0.5,9.8-1.2,14.7-2c2.3-0.4,4.5-1,6.7-1.7
		c2.7-0.8,4-2.9,4.1-5.6C548.2,223.3,546.2,219.4,543.2,216z M489.3,173.4c0.9,0.1,1.8,0.2,2.1,1.2c0.4,1,0.1,1.9-0.7,2.6
		c-1.2,1-2.5,1.8-4.1,1.7c-1.7-0.1-3.4-0.3-5.5-0.5C483.1,174.8,485.6,173.1,489.3,173.4z M473.8,179.8c0.9-0.1,1.8,0.2,3,0.3
		c-1,2.1-1.8,4-2.7,5.8h-0.5c-0.5-1.4-1.1-2.7-1.5-4.1C472,180.9,472.8,179.9,473.8,179.8z M417.5,66.2c3.9-0.1,7.7,0.8,11.2,2.3
		c1.4,0.6,2.9,1.9,3.7,3.3c2.5,4.4,5.9,8,8.9,11.9c2.6,3.4,5.2,6.8,6.4,11.1c0.5,1.6,1.4,3,2.1,4.6c-3.3,4.3-7.7,7.5-12,11
		c-0.3-0.5-0.6-0.8-0.7-1.2c-1.9-5.6-4.6-10.7-7.4-15.8c-1.9-3.3-3.5-6.6-4.8-10.2c-1.3-3.7-2.7-7.3-4.3-10.9
		c-0.9-2-2.1-3.9-3.2-5.9C417.3,66.4,417.4,66.2,417.5,66.2z M393.8,58.1c4,1.2,8.2,2.1,12,3.9c5.4,2.4,9.1,6.7,11.4,12.1
		c1.8,4.2,3.2,8.5,4.9,12.7c1.1,2.6,2.4,5,3.7,7.5c3.2,6,6.4,11.9,9.7,18.1c-4.5,2.6-9.2,4-13.6,6.1c-0.3-0.2-0.5-0.3-0.6-0.4
		c-0.9-3.1-1.8-6.3-2.8-9.4c-0.5-1.7-1.1-3.3-1.9-4.9c-0.9-2-2.1-4-3-6c-2.8-5.8-6-11.3-9.8-16.4c-1.2-1.6-2.4-3.2-3.6-4.8
		c-4.1-5.7-7.7-11.8-14.3-15.5C388.3,58.7,390.6,57.2,393.8,58.1z M372,61.1c3.7,0.8,7.3,1.8,10.9,2.7c2.4,0.6,4.3,2.1,6,3.9
		c2.2,2.5,4.3,5.1,6.3,7.8c1.9,2.5,3.6,5.1,5.5,7.6c4,5.4,7.4,11.2,10.3,17.3c0.4,0.8,0.7,1.6,1.2,2.4c1.9,2.9,3.3,6,4.1,9.4
		c0.6,2.4,1.9,4.7,3.1,7.2c-3.6,0.8-7,1.5-10.7,2.4c-0.8-1.9-1.5-3.6-2.3-5.4c-0.7-1.5-1.2-3.1-2.1-4.5c-3-4.9-6.5-9.5-10.5-13.6
		c-4.7-4.9-9-10.2-13-15.7c-1.6-2.2-3.4-4.2-5.2-6.3c-3.8-4.4-8.4-7.6-14-9.2c-0.5-0.1-0.9-0.4-1.3-0.6
		C364.4,60.8,366.2,59.8,372,61.1z M187.8,55.7c0.5,1.3,1.7,2.5,2.9,3.4c3.3,2.6,7,4.1,11.2,4.4c6.6,0.4,13.2,1,19.9,1
		c10.8,0,21.6-0.4,32.4-0.7c1.2,0,2.4-0.1,3.6-0.1c21.1,0.4,42.2,0.8,63.3,1.2c8.8,0.2,17.5,1.6,26.2,2.8c4.8,0.7,9.6,1.5,14.3,3.1
		c3.6,1.3,6.9,3.1,9.4,6c2.7,3,5.2,6.1,7.7,9.2c3.7,4.5,7.3,9.1,11.2,13.5c4,4.4,7.8,8.9,11,13.9c0.9,1.5,1.6,3.1,2.4,4.7
		c0.6,1.3,1.3,2.5,2,4c-3.7,0.6-7.4,1.2-10.9,1.7c-0.2-0.2-0.3-0.3-0.3-0.4c-0.2-4.5-2.5-8.3-4.5-12.1c-1.3-2.5-3.6-4.5-5.6-6.6
		c-3.3-3.4-7-6.3-11.3-8.4c-5-2.4-9.9-4.9-14.3-8.2c-4.1-3.1-8.8-4.9-13.7-6c-10.6-2.4-21.4-4-32.3-4.5c-13.7-0.7-27.3-1.5-41-2.1
		c-11.7-0.6-23.5-1-35.2-1.6c-10-0.5-20-1.1-29.9-1.8c-4.9-0.3-9.9-0.9-14.8-1.7c-5.7-1-11.1-2.9-15.6-6.8c-1.5-1.3-2.7-2.8-3.1-4.8
		c-0.8-3.9-1.5-7.8-2.1-11.8c-0.9-5.4-0.7-10.8-0.4-16.3c0.1-1.9,0.3-3.8,0.5-6.1c3.3-0.4,6.5-0.9,9.7-1.1c2.4-0.1,2.8,0.4,2.5,2.8
		c-0.6,6.2-0.4,12.5,0.8,18.6C184.9,48.5,186.4,52.1,187.8,55.7z M191.8,101.3c-4.9-4.2-10.5-4.7-16.5-3.4c-4,0.8-7.9,1.8-11.9,2.8
		c-6.1,1.6-12.3,1.4-18.6,0.7c-4.1-0.5-6.6-3-8.2-6.5c-0.4-1-0.8-2.1-1.2-3.1c-1.7-4.1,1.2-6.6,4.3-7.1c2-0.4,4.1,0,6.1,0.9
		c1.2,0.5,2.5,0.8,3.8,1.2c0.8,0.2,1.5,0.4,2.2,0.7c1.7,0.8,3.3,1.6,4.9,2.5c5.7,3.2,11.9,4.5,18.4,4.8c2.7,0.1,5.4,0.3,8.2,0.3
		c20.3,0,40.6,0.1,60.9,0c16.3-0.1,32.6-0.5,48.9-0.5c9.3,0,18.5,0.7,27.8,1c5.9,0.2,11.8,0.4,17.7,0.8c8.5,0.6,17.1,0.7,25.5,2.3
		c3,0.6,6,1.2,8.9,2c2.8,0.8,4.7,3,6.7,5.1c-1.7-0.6-3.4-1.2-5.2-1.7c-10.3-2.6-20.7-4.5-31.5-4.5c-16.5,0-32.9-0.7-49.4-0.7
		c-20.5-0.1-40.9,0.1-61.4,0.4c-10.2,0.1-20.5,0.7-30.6,2.1c-2.6,0.4-5.3,0.4-7.9,0.5C193.1,101.8,192.2,101.7,191.8,101.3z
		 M190.8,114.4c-1.8,1.8-4,3-6.3,3.6c-6.3,1.6-12.4,3.8-18.2,6.6c-7.7,3.7-14.8,8.2-20.5,14.7c-4,4.6-7.6,9.5-11.1,14.4
		c-4.3,6.1-9,11.9-13.6,17.7c-1.6,2-3.5,3.8-5.5,5.4c-1,0.9-2.5,1.7-3.8,1.8c-3.6,0.5-7.2,0.6-10.7,0.8c-0.6,0-1.2-0.2-2.2-0.4
		c0.5-0.8,0.7-1.3,1-1.7c3.2-4.2,6.3-8.4,9.5-12.6c0.5-0.7,1.1-1.4,1.6-2.1c3.5-4.6,7-9.3,10.6-13.9c4.6-6,9.4-11.9,14-18
		c3.8-5.1,8.4-9.1,13.8-12.4c10.1-6.2,21-9.6,32.7-11.1c2.5-0.3,4.9-0.8,7.3-1.2c2.2-0.4,3.1,0.2,3.4,2.5
		C193,110.8,192.4,112.8,190.8,114.4z M126.2,60c-3.2-4.5-6.7-8.8-10.2-13c-2.7-3.2-5.1-6.6-6.7-10.5c-1.1-2.6-2.3-5.1-3.6-8
		c0.9-0.4,1.7-0.9,2.6-1c1.6-0.2,3.2-0.2,4.8-0.3c1.8-0.1,3.7,0,5.5-0.1c1.1-0.1,1.8,0.2,2.4,1.1c4.2,6.7,8.4,13.4,12.7,20.1
		c1.7,2.5,3.7,4.8,5.6,7.2c0.7,0.8,1.4,1.5,2.1,2.3c3.5,4.5,7.7,8.4,11.8,12.3c8.3,8,18.1,11.8,29.4,13.1c19.9,2.2,39.9,2.7,59.9,2
		c9.5-0.3,19-0.5,28.5-0.5c4.2,0,8.5,0.2,12.7,0.5c15.5,0.9,31,0.8,46.5-0.2c1.3-0.1,2.7-0.3,4-0.4c9.2-0.8,17.3,2.3,24.6,7.7
		c1.1,0.8,2.2,1.7,3.4,2.5c-0.1,0.1-0.1,0.2-0.2,0.4c-2.3-0.3-4.5-0.8-6.8-1c-7.3-0.7-14.7-1.3-22-1.8c-7.8-0.5-15.7-0.8-23.5-1.1
		c-18.6-0.8-37.3-0.6-55.9-0.1c-14.4,0.3-28.8,0.1-43.2,0.1c-9.4,0-18.7,0.1-28.1,0c-5,0-10.1,0-15-1.3c-2.5-0.6-4.9-1.4-7.2-2.5
		c-3.6-1.7-7.2-3.5-10.7-5.5C140,76.6,132.5,69,126.2,60z M195.3,105.5c3.9-0.4,7.6-0.7,11.3-1.2c12.8-1.5,25.7-1.7,38.6-1.8
		c20.9-0.2,41.9-0.1,62.9,0c14.3,0,28.6,0.2,42.9,0.5c3.9,0.1,7.8,0.8,11.7,1.4c6.5,0.9,12.9,2.4,19,4.7c3.1,1.2,5.2,2.9,6.2,6.1
		c0.2,0.6,0.4,1.2,0.9,2.4c-2.7-0.8-5-1.4-7.1-2.2c-4.1-1.6-8.4-2.1-12.6-2.8c-9.2-1.6-18.5-1-27.7-0.1c-2.1,0.2-4.3-0.1-6.4-0.2
		c-0.8,0-1.6-0.1-2.4-0.2c-18.7-1.5-37.5-2-56.3-1.3c-9.7,0.3-19.3,0.5-29,1c-5.8,0.3-11.6,1-17.4,1.6c-1.1,0.1-2.2,0.2-3.3,0.2
		c-10.5-0.1-20.9,1.1-31.3,2.3c-0.4,0-0.7,0-1.5,0C196.1,112.5,196.4,109.1,195.3,105.5z M225.1,22.5c-4.5-0.6-8.6,0.4-12.2,3.2
		c-2.2,1.8-3.6,4-4.1,6.8c-0.3,1.5-0.6,3.1-1.3,4.6c-1.2,2.7-3.6,4-6.5,4.3c-0.6,0.1-1.3,0-1.9,0.1c-1.8,0.2-3.4-0.1-4.8-1.6
		c-1.4-1.6-2.8-3.3-2.7-5.4c0.2-3.7-1.2-6.7-3.3-9.5c-0.4-0.5-0.9-1-1-1.6c-0.5-2.7-2.5-3.4-4.8-3.4c-2.3-0.1-4.6,0.1-6.9,0.3
		c-1.5,0.1-3,0.4-4.5,0.7c-2.6,0.5-3.6,1.4-3.8,3.9c-0.4,6.6-1.3,13.2-0.3,19.9c0.7,4.3,1.2,8.7,1.9,13c1.1,6.4,5.6,10,11.1,12.6
		c7.7,3.6,15.9,4.7,24.2,5.2c17,0.9,34,1.8,51,2.6c15.7,0.8,31.3,1.6,47,2.4c5.2,0.3,10.4,0.6,15.6,0.9c0.6,0,1.2,0.1,1.8,0.2
		c0,0.1,0,0.3,0,0.4c-0.6,0.1-1.2,0.2-1.7,0.2c-12.6,0.1-25.1,0.2-37.7-0.7c-3.4-0.3-6.9-0.2-10.3-0.2c-11,0.1-22.1,0.5-33.1,0.5
		c-10.1,0.1-20.2,0.3-30.2-0.2s-19.9-1.7-29.8-2.9c-7-0.8-13-4-18.2-8.5c-4.7-4.1-9.5-8.1-13.3-13.1c0-0.1-0.1-0.1-0.2-0.2
		c-5.2-5-9.1-11-12.9-17c-2.8-4.3-5.5-8.6-8-13.1c-1.3-2.3-3-3.5-5.8-3.3s-5.6,0-8.4,0.1c-2.1,0.1-4.2,0.3-5.9,1.6
		c-2.1,1.5-2.5,3.1-1.5,5.4c1.5,3.3,2.9,6.6,4.5,9.8c1.5,3.1,3.6,5.8,5.8,8.5c3.5,4.3,7,8.5,10.2,13c4.7,6.6,10.2,12.5,16.5,17.7
		c0.3,0.2,0.6,0.5,1.1,1c-2.5,0.5-4.5,1.2-6.3,2.6c-3,2.3-3.5,5.2-2.6,8.5c0.6,2.1,1.5,4.2,2.6,6.2c2.2,4,5.6,6.2,10.2,6.7
		c7.1,0.8,14.2,0.7,21.2-1.2c3.8-1.1,7.7-2,11.7-2.7c2.2-0.3,4.5-0.1,6.7,0.2c1,0.1,2.1,0.7,3.1,1.5c-0.5,0.1-0.9,0.4-1.4,0.4
		c-5.8,1-11.7,1.8-17.4,3.2c-9.3,2.4-17.6,6.7-25.5,12c-3,2-5.5,4.4-7.7,7.2c-1.5,2-3.1,3.9-4.4,6c-4.4,7.1-9.8,13.4-15.2,19.8
		c-2.5,2.9-4.6,6.1-7,9.1c-1.1,1.4-2.3,2.8-3.7,4.5c-0.3-0.8-0.4-1.3-0.5-1.7c-2-6.3-5.9-11-12.2-13.3c-3.1-1.1-6.2-2-9.5-2.6
		c-4-0.7-8-0.5-11.8,1c-3.4,1.4-6.9,2.6-10.2,4.2c-6.6,3.1-13.5,4.8-20.8,5.3c-1.7,0.1-3.3-0.2-4.9-0.9c-3.5-1.5-7.1-3-10.7-4.3
		c-1.6-0.6-2.4-1.6-2.8-3.2c-1.2-4.2-1.5-8.5-1.9-12.8c-0.4-4.1-0.6-8.3-0.9-12.4c-0.3-5.7-0.6-11.3-0.8-17c-0.1-4-0.3-8-0.2-12
		c0.1-7.8,0.2-15.7,0.6-23.5c0.4-7.7,1.3-15.4,2.8-23.1c0.9-4.8,2.1-9.5,3.7-14.1c0.6-1.8,1.6-3.3,3-4.8c4.6-5,10.5-6.9,16.8-7.8
		c9.3-1.3,18.5-2.6,27.8-3.5c5.7-0.6,11.5-0.5,17.2-0.8c12.6-0.5,25.3-1,37.9-1.6c10.3-0.5,20.6-1.5,30.9-2
		c12.6-0.6,25.3-0.4,37.9,0.5c8.1,0.6,16.1,1.6,24,3.5c3.5,0.8,6,2.3,8,5C227.2,22.8,226.1,22.7,225.1,22.5z M6,125.9
		c-1.2-8.4-2-16.8-2-25.3C4,92.3,3.8,84,4.1,75.7c0.3-7.5,1.3-15,1.9-22.5c0.4-4.7,0.7-9.4,0.6-14.1c0-4.9,0.9-9.7,1.9-14.5
		c0.4-1.8,0.9-3.6,1.3-5.4c0.3-1.6,1.2-2.7,2.7-3.4c2.1-1,4.3-1.6,6.7-1.8c14-1.2,28-2.5,42.1-3.8c16.1-1.4,32.2-2.7,48.3-4
		c10.2-0.8,20.4-1.9,30.6-2.4c7.5-0.4,15-0.4,22.5-0.4c8.3,0,16.6,0,25,0.1c12.4,0.2,24.8,0.7,37,3.4c6.5,1.5,12.9,3.8,19.2,5.9
		c3.8,1.3,5.9,4.2,6.4,8.2c0.2,2,0.4,4,0.6,6c0.2,1.7,0.3,3.3,0.6,5c1.1,6.2,2.1,12.4,2.4,19.1c-2.9,0.1-5.8,0.2-8.6-0.4
		c-1.4-0.3-1.6-1.4-1.9-2.5c-1-3.4-2.1-6.7-2.9-10.1c-1.5-6.2-4.8-11.5-8.2-16.7c-2.4-3.8-6-5.9-10.3-7c-8.1-2-16.3-3.1-24.6-3.7
		c-13.6-1-27.2-1.2-40.8-0.5c-9.3,0.5-18.7,1.4-28,1.9c-11.7,0.6-23.5,1-35.2,1.5c-3.7,0.1-7.3,0.3-11,0.3
		c-8.9,0.1-17.7,1.4-26.5,2.6c-2.9,0.4-5.9,0.7-8.8,1.2c-4.2,0.8-8.3,1.7-12.4,2.8c-1.7,0.5-3.2,1.7-4.8,2.6
		c-0.3,0.2-0.6,0.6-0.9,0.7c-3.9,1.7-5.7,5-7,8.7c-3.7,10.4-5.5,21.2-6.2,32.2c-0.6,10.3-1,20.6-1.1,30.9c-0.1,11,0.2,22.1,1.3,33.1
		c0.6,5.8,0.9,11.6,1.3,17.6c-2.4-1.4-3.8-3.5-5-5.7c-1-1.8-1.8-3.7-2.6-5.6c-0.1-0.2-0.1-0.5-0.3-0.6C6.8,132.2,6.4,129,6,125.9z
		 M125.8,204.3c-0.5,0-1.4,0-2.3,0c-28.4,0.2-56.8,0.4-85.2,0.6c-3.8,0-7.7-0.1-11.5-0.2c-1.7,0-3.2-0.3-3.6-2.4
		c-0.1-0.6-0.6-1.2-1-1.6c-2.2-2.6-3.4-5.8-4.6-8.9c-0.6-1.5-1.2-2.9-1.8-4.4c-2.1-5.5-3.4-11.2-4.4-16.9
		c-1.3-7.5-2.4-15.2-3.5-22.8c-0.3-2.3-0.5-4.5-0.7-6.8c0.1,0,0.2-0.1,0.3-0.1c0.3,0.4,0.7,0.8,0.9,1.2c1.3,2.5,2.8,4.8,5,6.6
		c1.8,1.4,3.4,3.1,5,4.8c0.4,0.4,0.6,1.1,0.8,1.7c1.5,6.7,4,13,7.5,18.9c2,3.3,4,6.6,6,9.8c2.9,4.4,7.1,6.9,12.3,7.5
		c11.1,1.3,22.2,2.5,33.5,2.5c15,0.1,29.9,0.2,44.9,0.3c0.7,0,1.4,0,2.2,0v10.2H125.8z M239.1,187.6c0.6-3.7,0.8-7.5,1.4-11.2
		c1.5-8.1,2.1-16.3,4.7-24.2c0.6-1.7,0.8-3.6,1.1-5.4c0.6-2.9,1.6-3.6,4.5-3.3c1.4,0.2,2,0.9,2.2,2.1c0.8,3.7,1.1,7.4,0.2,11.2
		c-1.4,6.2-2.6,12.3-3.5,18.6c-1.1,7.5-3.5,14.8-6.7,21.7c-0.6,1.3-1.3,2-2.8,2.2c-2.8,0.3-5.7,0.8-8.7,1.3c1.5-1.8,2.8-3.5,4.1-5.2
		C237.5,193.1,238.7,190.4,239.1,187.6z M147.9,194.1c10.4-0.1,20.8,0,31.2-0.6c10.7-0.6,21.4-1.5,31.9-3.4
		c4.7-0.8,9.5-1.4,14.2-2.3c4.1-0.8,8-2,11.7-5.2c-1.2,6.6-2.1,12.5-8.1,16.2c-2.9,1.8-5.9,3.1-9.3,3.5c-14.5,2-29.1,2.2-43.8,2.1
		c-13.7-0.1-27.3-0.2-41-0.2c-0.6,0-1.3,0-1.9,0c-2.3-0.1-3.1-0.5-3.4-2.8c-0.2-1.9,0-3.8,0.1-5.7c0.1-1.3,0.9-1.8,2.3-1.8
		C137.2,194.1,142.5,194.2,147.9,194.1z M187.4,175.7c0.5-3.6,3-5.9,6.7-6.2c1.4-0.1,2.3,0.5,2.9,1.7c1.7,3.4,0.7,9-2.2,11.5
		c-1.5,1.3-3.4,1.6-5.2,1.6c-5.4,0.1-10.8,1.1-16.3,0.3c-4-0.6-8.1-1.2-12.1-1.9c-7.8-1.3-15.5-1-23.1,1c-3.5,0.9-6.8,2.6-9.1,5.5
		c-0.7,0.9-1.6,1.2-2.7,1.2c-2.5-0.1-5-0.1-7.4-0.1c-12.8-0.1-25.6-0.1-38.4-0.2c-8.3-0.1-16.6-0.4-24.9-1.5
		c-3.6-0.5-7.3-0.7-11-1.3c-3.4-0.5-6.2-2.2-8.2-5c-5.2-7.3-9.6-15.1-12.4-23.7c-0.2-0.7-0.4-1.5-0.6-2.6c0.8,0.3,1.3,0.4,1.8,0.6
		c3.3,1.3,6.7,2.7,10,4c1.8,0.7,3.7,0.7,5.7,0.6c7.8-0.6,15-2.8,22-6.2c3.5-1.7,7.2-3.1,10.9-4.4s7.4-0.7,11.1,0
		c2,0.4,3.8,1.1,5.7,1.7c4.9,1.6,8.2,5.1,10.4,9.7c0.6,1.2,0.9,2.6,1.1,3.9c0.3,1.5-0.1,2.9-1.1,4.3c-1.8,2.4-3.6,4.9-5.2,7.5
		c-1.8,2.7-0.9,4.6,2.3,5.1c2.2,0.3,4.5,0.5,6.7,0.4c3.4-0.2,6.9-0.2,10.1-1.8c1.3-0.7,2.7-1.5,3.6-2.6c4.6-5.6,9-11.4,13.5-17.1
		c3.8-4.9,7.4-10,11.3-14.9c6.9-8.7,15.3-15.2,25.5-19.7c12.9-5.7,26.5-8.2,40.5-9.1c11.6-0.7,23.2-0.8,34.7-2.3
		c3.6-0.5,7.3-0.6,11-0.7c19-0.5,38.1-0.9,57.1-1.3c1.6,0,3.3,0.2,4.9,0.3c0,0.2,0,0.4,0,0.6c-3.9,0.3-7.8,0.7-11.7,0.8
		c-10.7,0.3-21.4,0.5-32.1,0.8c-11.5,0.4-23,0.8-34.4,2.5c-6.2,1-12.6,1.2-18.9,1.6c-8.1,0.5-16.1,1.4-23.9,3.5
		c-4.5,1.2-8.8,2.8-13.1,4.5c-4.8,2-8.1,5.5-9.3,10.8c-1,4.4-2.4,8.8-2.8,13.4c-0.5,5.8-1.3,11.6-1.8,17.4c-0.2,2.5-0.1,5,0.1,7.4
		c0.3,3,1.4,4,4.3,3.9c3,0,6.1-0.2,9.1-0.5C185.7,180.2,187,178.8,187.4,175.7z M357,126.9c-13.7,0.7-27.5,1-41.2,1.6
		c-10.2,0.4-20.4,1.1-30.7,1.5c-10,0.4-20,0.5-30,0.7c-12.1,0.2-24.1,1.1-36.1,2.4c-4.5,0.5-8.9,1.1-13.2,2
		c-3.9,0.9-7.7,2.1-11.4,3.7c-2.7,1.1-5.1,2.9-7.5,4.6c-1.9,1.4-2.9,3.5-3.4,5.9c-1.2,5.9-1.1,11.8-0.2,17.7
		c0.5,3.2,0.5,6.3,0.4,9.7c-3.5,0.9-7,0.8-10.7,0.9c-0.2-0.8-0.4-1.5-0.4-2.1c0.1-2.9,0-5.8,0.3-8.6c0.6-5.7,1.1-11.5,2-17.1
		c0.7-4.3,2-8.5,3.2-12.7c0.3-1.1,1.3-2.3,2.2-3c1.6-1.2,3.5-2.3,5.3-3.2c9.4-4.2,19.4-5.8,29.6-6.7c7.8-0.7,15.7-0.8,23.4-2
		c14.3-2.1,28.7-2.3,43.1-2.6c10.5-0.2,20.9-0.6,31.4-1.2c10.9-0.7,21.8-1.8,32.7-2.7c3.7-0.3,7.4-0.6,11-0.5
		c9.1,0.3,18.2,1.5,26.8,4.7c1.7,0.6,3.5,1.1,5.2,1.7c1.3,0.5,1.3,0.5,1.4,2.7c-2.1,0-4.1-0.1-6.1,0c-3.7,0.3-7.3,0.6-11,1
		C367.8,125.7,362.5,126.6,357,126.9z M369.1,139.8c-2.4-0.8-4.7-2.1-6.4-4.1s-1.5-2.8,1-3.8c1.1-0.4,2.3-0.7,3.4-1.1
		c1.1-0.4,2.5-0.7,3.2-1.5c1.4-1.4,3.1-1.6,4.8-1.7c1.9-0.2,3.8-0.4,5.7-0.3c7.7,0.5,15.3-0.2,22.9-1.6c5-0.8,9.9-1.7,14.8-2.7
		c2.5-0.5,4.9-1.5,7.3-2.4c2.5-1,5-2,7.5-3.1c1.4-0.6,2.8-1.2,4-2.2c4.9-4.1,10.2-7.8,14.3-12.7c0.5-0.6,1.1-1.2,1.5-1.9
		c0.9-1.4,1.3-2.9,0.3-4.7c-0.6,0.2-1,0.4-1.6,0.6c-0.4-0.9-0.7-1.7-1-2.6c1.9-0.5,5.9-0.5,7.4,0.1c1.7,0.7,2.6,2.7,2,4.8
		c-0.3,1-0.8,1.9-1.3,2.8c-2.2,3.4-4.4,6.8-6.7,10.2c-0.6,0.9-1.5,1.7-2.3,2.4c-4.3,3.6-8.5,7.2-13,10.6c-9.3,7-19.6,11.6-31,13.9
		c-7.5,1.5-15,2.3-22.6,2.7C378.4,141.9,373.7,141.4,369.1,139.8z M379.3,161.4c-2.3,0.1-4.2-0.3-5.2-2.6c-1-2.3-1.9-4.6-0.1-7
		c1.2-1.6,2.3-3.2,3.6-4.8c1.1-1.4,2.7-1.9,4.5-1.9c10.7-0.3,21.2-1.5,31.5-4.5c11-3.1,21-8.5,29.6-16.2c2.2-2,4.6-3.7,7-5.5
		c3-2.4,5.6-5.3,7.6-8.5c0.6-0.9,1.3-1.8,1.9-2.8c0.7,0.2,1.3,0.4,1.9,0.6c3.2,1.1,4.7,3.8,3.8,7.2c-1.4,5.4-4.7,9.5-9.3,12.7
		c-2.8,1.9-5.8,3.5-8.2,5.8c-3.2,3-7,5.2-10.6,7.7c-5.4,3.8-11.4,6.4-17.4,8.9c-7,2.9-14.1,5.1-21.3,7.3
		C392.3,159.9,385.9,161.1,379.3,161.4z M450.9,136.1c-0.1,1.5-0.1,1.6-2.7,4.1c-1.2,1.2-2.5,2.4-3.7,3.7c-0.7-0.8-1.2-1.3-0.3-2.1
		c1.9-1.7,3.8-3.3,5.7-5C450.1,136.6,450.5,136.4,450.9,136.1z M440.3,148.3c-2.8,2.7-5.8,5.2-8.8,8c-0.9-2-1.7-3.7-2.4-5.3
		c4-2.4,7.8-4.8,11.7-7.1C442.2,146.3,442.3,146.4,440.3,148.3z M428.8,158.4c-3.2,3.3-6.9,5.9-11,8.2c-1-3.4-1.9-6.7-3-10.2
		c3.7-1.5,7.4-2.9,11.5-4.5C427.2,154.1,428,156.2,428.8,158.4z M373.8,189.3c-3.8-1-6-3.7-6.8-7.5c-0.3-1.2,0.1-2.3,1-3.3
		c2.2-2.3,4.8-3.3,8-2.5c1.5,0.4,2.9,0.8,4.5,1.2c-0.6,4.5-0.4,5.2,3.9,9.3C381.4,190,377.8,190.4,373.8,189.3z M387.5,184.2
		c-1.6-1.3-3.5-2-3.8-4.3c1.1-1.2,2.3-2,4-2.2c1.8-0.2,3.6-0.5,5.4-0.8c0.9-0.2,1.9-0.4,2.7-0.8c1.8-0.8,2-1.7,1.4-3.7
		c-1-3-1.9-6-2.9-9.3c6-1.9,11.8-3.7,17.9-5.6c0.9,3.7,1.8,7.3,2.7,10.9c-5.2,2.5-9.6,6.1-15.4,7.3c-1.5,0.3-2.8,1.1-4.2,1.6
		c-1.3,0.5-2.6,1-3,2.7c-0.1,0.7-1.1,1.3-1.8,1.9C389.5,182.6,388.5,183.4,387.5,184.2z M395.4,187.2c-1.4-0.4-2.9-0.8-4.7-1.2
		c1.8-1.9,3.3-3.6,4.9-5.2c0.4-0.4,1.1-0.7,1.6-1c1.5-0.5,3.1-0.9,4.6-1.4c2-0.7,4.2-1.3,6-2.3c4.2-2.3,8.2-4.9,12.3-7.5
		c3-1.9,5.9-3.8,8.7-6c4.2-3.2,8.3-6.5,12.2-10.1c4.2-3.8,8-8,12-12.1c0.4-0.5,0.8-1,1.1-1.6c1.6-2.7,3.2-5.3,4.8-7.9
		c0.2-0.3,0.5-0.6,0.8-0.9c2-2.2,3.9-4.4,5.9-6.6c0.3-0.3,0.5-0.6,0.8-1c0.6,0.2,1.2,0.4,1.8,0.7c1.3,0.5,1.8,1.3,1.8,2.8
		c-0.1,4.5-1,8.9-2.8,13.1c-1.2,2.9-2.6,5.7-3.7,8.6c-1.5,3.7-3.9,6.5-7,8.9c-7.2,5.7-14.4,11.5-21.7,17
		c-7.2,5.5-14.7,10.6-23.5,13.3C406.2,188.4,400.8,188.9,395.4,187.2z M426.2,183.9c2.4-1.7,4.7-3.2,7.2-4.9
		c1.1,1.2,2.1,2.3,3.2,3.3c1.1,1,2.3,1.9,3.7,3c-2.7,1.9-5.4,3.7-8.1,5.6C429.5,189.2,428,186.6,426.2,183.9z M428.7,192.8
		c-6.2,3.5-8.7,3.2-15.8-2.6c3.5-1.9,7.3-2.9,10.7-4.8C425.3,187.9,427,190.3,428.7,192.8z M436.2,177.3c3.6-3.3,7.6-6.2,11.6-9.5
		c1.2,1.7,2.3,3.2,3.3,4.8c0.5,0.7,0.4,1.3-0.2,2c-0.9,1.1-1.8,2.3-2.8,3.3c-1.7,1.8-3.5,3.4-5.4,5.2
		C439.9,181.8,438.1,179.7,436.2,177.3z M450.2,165.9c3.7-3.6,8.2-6,12.1-9.9c-0.1,0.9-0.1,1.3-0.2,1.6c-1.3,2.5-2.2,5.2-4.3,7.4
		c-1.6,1.7-3,3.7-4.6,5.9C452.2,169,451.3,167.5,450.2,165.9z M417.9,200.6c-2.6,0.1-5-0.9-7.3-2.1c-0.3-0.2-0.7-0.5-0.9-0.8
		c-0.9-2-1.8-4-2.7-6c0.1-0.2,0.3-0.3,0.4-0.5c0.7,0.2,1.5,0.3,2,0.7c1.3,0.8,2.5,1.7,3.7,2.7c3.7,3,7.7,3.9,12.5,2.7
		c5.5-1.4,9.9-4.5,14.2-7.8c3.2-2.5,6.2-5.2,9.4-7.8c2.3-1.9,4.1-4.2,5.8-6.7c2.2-3.1,4.6-5.9,6.7-9c2.7-4.1,5.3-8.2,4.5-13.5
		c-0.2-1.4,0.1-2.7,0.7-3.9c0.8-1.8,1.5-3.7,2.3-5.5c0.3-0.7,0.8-1.4,1.3-2c1.2-1.1,1.8-1,3.1,0.1c0.7,0.6,1.5,1.2,2.1,1.9
		c2.1,2.2,3.2,4.7,2,7.7c-3.8,9.7-6.9,19.6-11.9,28.8c-2,3.7-4.7,6.4-8.5,8.1c-5.6,2.5-11.1,5.3-16.8,7.7
		C433.3,198.2,425.8,200.3,417.9,200.6z M456.3,234c-0.2-3.2-1-6.5-1.8-9.6c-1-3.9-2.2-7.7-2.1-11.7c0-1.7,0.2-3.3,0.4-5
		c0.2-2.4,0.5-4.9,0.7-7.3c0.1,0,0.3-0.1,0.4-0.1c0.4,0.6,0.7,1.2,1.1,1.8c1.1,1.6,2,3.3,3.3,4.7c2.7,3,4.7,6.4,6.2,10.2
		c1.3,3.3,2.7,6.5,4.3,9.6c3.5,6.8,4.9,14.2,5.7,21.7c0.6,5.7,0.1,11.3-0.4,17c-0.1,0.9-0.2,1.8-0.6,2.5
		c-3.7,8.4-8.2,16.3-14.8,22.8c-1.5,1.5-3.2,2.6-5.5,3.7c0.1-1.2,0.1-2,0.2-2.8c1.1-8,2.3-16,3.4-24c0.2-1.5,0.4-3,0.4-4.5
		C456.9,253.3,456.8,243.6,456.3,234z M430.7,202.3c1.8-0.5,3.4-1,5-1.5c1.4,3.5-0.7,5.9-1.9,9C432.7,207.2,431.8,204.9,430.7,202.3
		z M434.7,239.8c-1.1,1.3-2.1,2.6-3.1,4c-2.7,3.8-5.5,7.7-8.1,11.6c-3.8,5.5-6.4,11.6-8.6,17.9c-1.6,4.6-3,9.3-4.5,13.9
		c-0.8,2.3-2,3-4.3,2.5c-0.9-0.2-1.7-0.5-2.7-0.8c0-1,0-1.9,0-2.8c0.2-9.6,3.2-18.5,7.2-27.1c2.1-4.6,5.3-8.6,7.9-12.9
		c4.1-6.9,7.8-13.9,11.7-20.9c1.1-2,2.1-3.9,3.1-6c1.8-3.8,3.5-7.7,5.3-11.5c1.1-2.4,1.1-4.9,0.3-7.5c3.4-1.5,6.6-3,9.9-4.6
		c1,1.4,1.1,3,1,4.4c-0.2,3.4-0.4,6.9-1.1,10.2c-1,4.3-2.4,8.6-3.9,12.8C442.5,229.3,438.8,234.6,434.7,239.8z M417.9,318.9
		c-2.3,0.2-4.6-0.3-6.9-0.7c-3.9-0.7-7.7-1.4-11.5-2.3c-1.5-0.3-3-0.9-4.5-1.5c-0.9-0.3-1.3-1.1-1.2-2.1c0.4-2.1,0.8-4.2,1.2-6.6
		c1.6,0.3,2.9,0.7,4.2,0.9c4.6,0.9,9.2,2.1,13.9,2.4c4,0.2,8.1-0.1,12-1.9c3.8-1.8,7.8-3.3,11.9-5c-1,4.6-1.9,9.1-2.8,13.5
		C428.8,317.5,423.4,318.5,417.9,318.9z M446.3,313.5c-1.2,9.5-1.5,19.2,0.5,28.7c2,9.5,5.6,18.5,11.8,26.2c1,1.2,2.1,2.4,3,3.7
		c0.8,1.2,1.6,2.6,2,4c0.9,2.9-1.3,5.5-4.4,5.2c-0.2,0-0.3,0-0.5,0c-5.2-1.6-10.2-3.9-13-8.7c-4.8-8.1-8.3-16.8-9.5-26.2
		c-1.2-9-0.9-17.9,1-26.7c2.9-13.8,5.7-27.5,7.7-41.5c1.4-9.4,2.2-18.8,1.2-28.2c-0.5-4.8-1.5-9.6-2.3-14.4
		c-0.2-1.2-0.3-2.1,0.4-3.2c2.6-3.9,4.1-8.3,5.4-12.8c0.1-0.2,0.2-0.5,0.3-0.6s0.2-0.2,0.5-0.4c1.1,5.9,2.8,11.6,2.9,17.7
		c0.1,6.2,0.3,12.3,0.6,18.5c0.4,9.3-1,18.3-2.6,27.4C449.4,292.6,447.6,303,446.3,313.5z M486.4,268.8c-2,6-4.5,11.8-7,17.6
		c-3.8,8.9-10.6,15.1-18.8,19.8c-2.3,1.3-4.5,2.7-6.8,4.1c-1.1,0.7-2.1,1.3-3.5,2.1c0-0.8-0.1-1.3,0-1.8c0.5-3.5,1-7,1.5-10.4
		c0.1-0.9,0.3-1.6,1.4-2c5.7-2,9.7-6.2,13.1-10.8c3.8-5.2,7.2-10.8,9.8-16.8c0.7-1.7,1.3-3.6,1.5-5.5c0.4-2.8,0.5-5.6,0.5-8.4
		c0.1-10.9-1.2-21.5-6.2-31.5c-1.7-3.5-3.3-7.1-4.8-10.7c-1.5-3.5-3.5-6.6-6-9.5c-1.3-1.4-2.2-3.1-3.4-4.6c-0.9-1.2-1.8-2.4-2.7-3.6
		c-0.7-0.9-1.4-1.9-2.2-3c3.4-1.7,6.6-3.2,10-4.9c0.4,0.5,1,1,1.5,1.6c1.6,2.2,3.2,4.4,4.8,6.6c1,1.5,1.9,3.2,2.9,4.7
		c4.5,6.6,7.8,13.8,11.3,20.9c2.7,5.5,4.5,11.2,5.1,17.2C489.4,249.4,489.5,259.1,486.4,268.8z M542.5,230.5
		c-2.1,0.6-4.2,1.2-6.3,1.5c-4.4,0.7-8.9,1.2-13.3,1.8c-6.2,0.8-12.3,0-18.2-1.8c-5.7-1.7-10.8-4.8-15.8-7.8
		c-0.7-0.4-1.3-1.2-1.7-1.9c-0.5-0.8-0.9-1.7-1.2-2.6c-3.5-8.5-8.3-16.4-13.4-24.1c-2.1-3.2-4.5-6.2-6.8-9.3
		c0.9-1.2,1.7-2.4,2.8-3.9c0.4,1.2,0.7,2.1,1.1,3c2.8,7.1,6.4,13.8,11.8,19.3c3,3,6.2,5.8,9.2,8.7c2.3,2.1,4.9,3.4,8,4.1
		c3.6,0.8,7,2.1,10.6,3c3,0.8,6,1.5,9.1,2c3.4,0.6,6.7-0.3,9.9-1.1c3.2-0.8,6.3-1.8,9.5-2.6c2.3-0.6,2.6-0.4,4.1,1.4
		c1.7,2.2,2.5,4.8,2.7,7.5C544.5,229,543.9,230.1,542.5,230.5z"/>
</g>
<g id="Ebene_2">
</g>
</svg>
