<svg xmlns="http://www.w3.org/2000/svg" viewBox="0 0 594.6 362.02"><title>logo</title><path d="M213.71,220.1l-0.09-10.21v-4.17q0-25.7,2.55-35.74,3.06-12.42,8.51-17.19,7.4-6.64,18.72-6.64a5.62,5.62,0,0,1,4,1.28,4.12,4.12,0,0,1,1.32,3.06,5.15,5.15,0,0,1-1.06,3.19,3.48,3.48,0,0,1-2.68,1.49h-8.17q-3.57,0-6.21,4.6A36.26,36.26,0,0,0,226.9,171a117.71,117.71,0,0,0-2.13,20.85v0.85L224,226.31q0,10.64,1.15,14.72a39.55,39.55,0,0,0,2.38,6.59,14.3,14.3,0,0,0,2.94,4.13,13.93,13.93,0,0,0,10,3.74,5.48,5.48,0,0,0,3.74-1.53,7.17,7.17,0,0,1,3.66.94,3.12,3.12,0,0,1,1.62,2.89q0,6.89-9.62,6.89a31.78,31.78,0,0,1-8.21-1.15,23.68,23.68,0,0,1-6.42-2.51Q213.71,253.54,213.71,220.1Z" transform="translate(-105.14 -124.13)" fill="#272726"/><path d="M268.94,157.3l-0.68,43.48a39.35,39.35,0,0,0,9.53.85h6.3q0.42-.77.43-5.62t-1.15-21.32q-1.15-16.47-1.15-24.81a4.15,4.15,0,0,1,1.53-3.28,4.57,4.57,0,0,1,2.89-1.32,7.89,7.89,0,0,1,2.21.26,19.57,19.57,0,0,1,1.87.68,15.54,15.54,0,0,0,1.62.6q0,22.64,1.66,66.16t1.66,45a3.8,3.8,0,0,1-1.83,2.85,6.55,6.55,0,0,1-4.08,1.4q-2.26,0-3.62-3.32a33.55,33.55,0,0,1-1.83-9.83q-0.47-6.51-.64-11.27-0.09-2,0-4.68,0-3.57.08-8.17,0.17-8.08.17-9.36v-0.68l0.26-5-1-1.62V208.1a13.71,13.71,0,0,1-3.15.34l-11.23-1.62v20l1,28.68a7.72,7.72,0,0,1-1.28,4.38,4.14,4.14,0,0,1-3.66,1.91q-3.49,0-4.81-6.34a89,89,0,0,1-1.32-17.32l0.51-26.55a74.93,74.93,0,0,0-.26-9.1v-0.85q0.68-9.1.68-10.21l-1.19-39.31a5.19,5.19,0,0,1,1.45-3.62,4.57,4.57,0,0,1,3.49-1.57Q268.94,146.92,268.94,157.3Z" transform="translate(-105.14 -124.13)" fill="#272726"/><path d="M345.35,226.82l1.87,10.72a74.89,74.89,0,0,0,1.66,10.38,71.63,71.63,0,0,1,1.66,10.81v0.17q0,3.83-2.89,4.94a11.37,11.37,0,0,1-5.7-1.19q-2-1.19-2-4.59,0-7.4-2.55-21.53L320.16,234a86.5,86.5,0,0,0-2.47,12.68,97.81,97.81,0,0,1-1.62,10q-1.53,6.47-5.7,6.47a6.15,6.15,0,0,1-3.79-1.32,4,4,0,0,1-1.74-3.36l0.43-1.53a742,742,0,0,0,17.44-88.33q0.17-1.19.51-7,0.85-12.76,3.23-16.25h5.87a7.77,7.77,0,0,1,4.17,1.11,3.65,3.65,0,0,1,1.79,3.32q0,13.27,3.53,39.4T345.35,226.82Zm-9.1,3.49a52.25,52.25,0,0,1-.51-8.89q0-6.34-.72-15.74t-2.08-21.87q-1.36-12.47-1.87-18.08-7.91,43.82-10.21,61.78Q323.82,229.46,336.25,230.31Z" transform="translate(-105.14 -124.13)" fill="#272726"/><path d="M358.45,209l0.17-6.64c0-.57-0.08-0.85-0.25-0.85v-3.15q0-27.4,3.15-39,2.64-9.79,5.11-12.08a7.25,7.25,0,0,1,4.85-2.3q20.25,0,27.91,20.42,4.42,11.74,4.42,28.93v1.28l0.34,19.74q0,50.12-23.23,50.12-9.62,0-14.72-10.64a63.13,63.13,0,0,1-6-20.08A220.49,220.49,0,0,1,358.45,209Zm10.3-23.83-0.85,16.08q0,25.27,4.08,44.08,4.34,11,8.25,12.93a7.89,7.89,0,0,0,5.7-2.55,17.72,17.72,0,0,0,4-6.85,77,77,0,0,0,2.51-9.06,99.35,99.35,0,0,0,1.45-10q0.85-9.27.85-15.83t-1.15-20.08q-1.15-13.53-1.15-20.17v-3.06a18.47,18.47,0,0,0-4.17-11.36,12.53,12.53,0,0,0-10.21-5q-6,0-7.91,6.72a50.86,50.86,0,0,0-1.62,13.87Z" transform="translate(-105.14 -124.13)" fill="#272726"/><path d="M415.64,254.9l7.23,1.28a7.41,7.41,0,0,0,5.79-2.89,18.54,18.54,0,0,0,3.66-7.23,56.41,56.41,0,0,0,2.3-14.76,39.54,39.54,0,0,0-2.13-12.72,65.55,65.55,0,0,0-5.23-11.7q-3.11-5.4-6.17-11-7.32-13.27-7.32-26a34.36,34.36,0,0,1,2.64-13.87q4.93-11.23,13.1-11.23a9.93,9.93,0,0,1,5.83,2q2.76,2,2.77,4.25,0,4-4.25,4a7.29,7.29,0,0,1-3.66-1q-5.53.26-7.49,12.34a39.11,39.11,0,0,0-.43,6.17,31.86,31.86,0,0,0,1.53,8.72,42.14,42.14,0,0,0,3.87,9.23q2.34,4,5,8.93t5.06,9.49a52,52,0,0,1,5.36,24.34,42.83,42.83,0,0,1-4.85,20.17,20.37,20.37,0,0,1-6.77,7.79,17.69,17.69,0,0,1-10,3.11v0.43q-7.15-1-7.83-6.72Z" transform="translate(-105.14 -124.13)" fill="#272726"/><path d="M469.25,259.41l-0.34-13.36q0-.08.26-6-0.68-2.21-2.77-39.31t-2.25-45.35h-0.68q-14.13-.26-14.13-5.19a3.1,3.1,0,0,1,1.87-2.68,7.39,7.39,0,0,1,3.66-1.06l23.66,1.62,2.81-.09q5.44,0,5.45,4.17a4.09,4.09,0,0,1-1.79,3.45,6.57,6.57,0,0,1-4,1.32l-8-1.19-0.34,1.79q0,16.51,2.89,49.44t2.89,49.52a4.64,4.64,0,0,1-1.87,3.62,6.21,6.21,0,0,1-4.08,1.57Z" transform="translate(-105.14 -124.13)" fill="#272726"/><path d="M503.45,203.85l-0.17,18.89q0,23.06,3.32,36.33l-2,4.68h-4.85l-2.3-2.55q0.17-7.83.17-17.57T496.18,202q-1.49-31.91-1.49-47.65,0-8.25,5.79-8.25,9.1,0,15.32,4.77T522,164.45V176.7a21.89,21.89,0,0,1-1.87,9.15q-1.87,4.13-4.34,8.68t-2.72,5.06q0.94,4.26,3.32,16.68,5.11,27.15,11.32,39.06a12.67,12.67,0,0,1,1.79,5.32,5,5,0,0,1-1.06,3.23,3.48,3.48,0,0,1-2.85,1.32q-3.66,0-7-8.38a105.45,105.45,0,0,1-5.4-18.59q-6.21-31.23-7.57-34.38h-2.13Zm0.68-51.31-0.6,2.47q0,7.15.34,20.64t0.34,19.61q4.08-2.13,6.59-11.1t2.51-13.74a69.13,69.13,0,0,0-.26-7,27.18,27.18,0,0,0-1.11-5Q510.26,152.79,504.13,152.53Z" transform="translate(-105.14 -124.13)" fill="#272726"/><path d="M539.53,174.23l-0.94-14.72q0-12.34,7.32-12.34a52.53,52.53,0,0,1,12.76,2.17q8.08,2.17,8.08,5.57,0,3.57-5.11,5.45A68.37,68.37,0,0,0,548.47,157q0.25,3.75.26,7.49l-0.77,25q0,0.17.51,2.72l6.21-.26q8.42,0,8.42,4.77a4.32,4.32,0,0,1-1.53,3.28,5.51,5.51,0,0,1-3.87,1.4,40.85,40.85,0,0,1-5.06-.34h-4.42q0.51,6.64.51,13.19L548,245.88q0,9.79.34,9.79l12.85-.43q6.64,0,6.64,4.25a4,4,0,0,1-2.3,3.83,11.12,11.12,0,0,1-5.19,1.19H545.58a6.32,6.32,0,0,1-4.17-1.57,5.05,5.05,0,0,1-2-3.79v-4.59l-1.11-29.44Z" transform="translate(-105.14 -124.13)" fill="#272726"/><path d="M589.65,158.49l-1.62,35v4.68l3.23-.08q8.42,0,8.42,4.6a4.41,4.41,0,0,1-1.87,3.7,8,8,0,0,1-4.89,1.4,20.73,20.73,0,0,1-6.25-1v49.35q0,7.66-4.51,7.66-2.72,0-6.21-2.64,1.45-15.57,2.17-44.29t1.23-37.57V175q0.68-12.68.68-23.66a4.32,4.32,0,0,1,2.08-3.83,8.38,8.38,0,0,1,4.68-1.36q2.59,0,5.57.17t7.4,0.85q9.87,1.45,9.87,6,0,4.94-8.85,4.94a20.86,20.86,0,0,0-9.1-1.7h-2v2Z" transform="translate(-105.14 -124.13)" fill="#272726"/><path d="M630.75,158.49l-1.62,35v4.68l3.23-.08q8.42,0,8.42,4.6a4.41,4.41,0,0,1-1.87,3.7,8,8,0,0,1-4.89,1.4,20.73,20.73,0,0,1-6.25-1v49.35q0,7.66-4.51,7.66-2.72,0-6.21-2.64,1.45-15.57,2.17-44.29t1.23-37.57V175q0.68-12.68.68-23.66a4.32,4.32,0,0,1,2.08-3.83,8.38,8.38,0,0,1,4.68-1.36q2.59,0,5.57.17t7.4,0.85q9.87,1.45,9.87,6,0,4.94-8.85,4.94a20.87,20.87,0,0,0-9.11-1.7h-2v2Z" transform="translate(-105.14 -124.13)" fill="#272726"/><path d="M228.43,282.08l-1.62,35v4.68l3.23-.08q8.42,0,8.42,4.59a4.41,4.41,0,0,1-1.87,3.7,8,8,0,0,1-4.89,1.4,20.7,20.7,0,0,1-6.25-1v49.35q0,7.66-4.51,7.66-2.72,0-6.21-2.64,1.45-15.57,2.17-44.29t1.23-37.57v-4.25q0.68-12.68.68-23.66a4.32,4.32,0,0,1,2.08-3.83,8.38,8.38,0,0,1,4.68-1.36q2.59,0,5.57.17t7.4,0.85q9.87,1.45,9.87,6,0,4.94-8.85,4.94a20.86,20.86,0,0,0-9.1-1.7h-2v2Z" transform="translate(-105.14 -124.13)" fill="#272726"/><path d="M267,288.13L267.49,330a15.17,15.17,0,0,0-1,6v3.49l-0.68,27.74q0,12,5.87,12l7.23-.25q9.36,0,9.36,5.11a3.76,3.76,0,0,1-1.62,3.11,7.46,7.46,0,0,1-3.66,1.49,51.58,51.58,0,0,0-15.57-2,10.85,10.85,0,0,1-5.4,1.62,4.91,4.91,0,0,1-4-1.79,6.08,6.08,0,0,1-1.45-3.91q0-12.93,1.11-38.93t1.11-38.93v-1.28q-1-10.89-1-16.34,0-16.51,6-16.51a4.32,4.32,0,0,1,3.11,1.28,4.11,4.11,0,0,1,1.32,3.06Z" transform="translate(-105.14 -124.13)" fill="#272726"/><path d="M297.87,297.83l-0.94-14.72q0-12.34,7.32-12.34A52.53,52.53,0,0,1,317,272.94q8.08,2.17,8.08,5.57,0,3.57-5.11,5.45a68.37,68.37,0,0,0-13.19-3.32q0.25,3.75.26,7.49l-0.77,25q0,0.17.51,2.72l6.21-.25q8.42,0,8.42,4.77a4.32,4.32,0,0,1-1.53,3.28,5.51,5.51,0,0,1-3.87,1.4,40.86,40.86,0,0,1-5.06-.34h-4.42q0.51,6.64.51,13.19l-0.77,31.57q0,9.79.34,9.79l12.85-.43q6.64,0,6.64,4.25a4,4,0,0,1-2.3,3.83,11.11,11.11,0,0,1-5.19,1.19H303.91a6.32,6.32,0,0,1-4.17-1.57,5.06,5.06,0,0,1-2-3.79v-4.59l-1.11-29.44Z" transform="translate(-105.14 -124.13)" fill="#272726"/><path d="M334.71,315.27l1-32.51a15.21,15.21,0,0,1,6.38-12.85V271a2.44,2.44,0,0,1,1.28-.43q4.08,0,10.21,14.08a262.89,262.89,0,0,1,11.06,30.93q4.93,16.85,9.83,34t6.08,20.12q3.49-36.51,3.49-88.41l-0.26-4.68q0-5.19,4.34-5.19a4,4,0,0,1,3.7,2,9,9,0,0,1,1.23,4.77v13.19q-0.17,20.51-1.83,54.76t-4.47,38.68a27.61,27.61,0,0,1-6.59,1.45,3.37,3.37,0,0,1-2.81-1.23,9.69,9.69,0,0,1-1.57-3.79,18.46,18.46,0,0,0-1-3.4l0.09-.77q0-6.47-12.51-41.1t-18.12-47.65v87.73q0.17,0.34.68,1.19a7,7,0,0,1,1.11,3.49,4.71,4.71,0,0,1-1.57,3.23,5,5,0,0,1-3.7,1.62q-5.7,0-5.7-10.64Z" transform="translate(-105.14 -124.13)" fill="#272726"/><path d="M405.77,378.49l7.23,1.28a7.41,7.41,0,0,0,5.79-2.89,18.54,18.54,0,0,0,3.66-7.23,56.41,56.41,0,0,0,2.3-14.76,39.54,39.54,0,0,0-2.13-12.72,65.56,65.56,0,0,0-5.23-11.7q-3.11-5.4-6.17-11-7.32-13.27-7.32-26a34.36,34.36,0,0,1,2.64-13.87q4.93-11.23,13.1-11.23a9.93,9.93,0,0,1,5.83,2q2.76,2,2.77,4.25,0,4-4.25,4a7.29,7.29,0,0,1-3.66-1q-5.53.26-7.49,12.34a39.11,39.11,0,0,0-.43,6.17,31.87,31.87,0,0,0,1.53,8.72,42.14,42.14,0,0,0,3.87,9.23q2.34,4,5,8.93t5.06,9.49a51.94,51.94,0,0,1,5.36,24.34,42.83,42.83,0,0,1-4.85,20.17,20.37,20.37,0,0,1-6.77,7.79,17.69,17.69,0,0,1-10,3.11v0.43q-7.15-1-7.83-6.72Z" transform="translate(-105.14 -124.13)" fill="#272726"/><path d="M445.51,286l-0.94-9V276a12.26,12.26,0,0,1,1.15-5.79q1.15-2.13,5.87-2.13a19,19,0,0,1,9.23,2.47A18.75,18.75,0,0,1,468,277.4a36.52,36.52,0,0,1,5.19,19.4q0,10.89-1.62,17.23a35.67,35.67,0,0,1-5.45,11.79q6.81,6.55,7.83,21.53,0.17,3.4.21,8.17a49,49,0,0,1-.81,9.36,36,36,0,0,1-2.81,8.76,29.07,29.07,0,0,1-4.94,7.23q-6.38,6.64-17.1,6.64a4.41,4.41,0,0,1-4.68-3.23,24.86,24.86,0,0,1-.77-6l1.7-37.1Zm7.4,84,0.17,0.85v7.83a12.9,12.9,0,0,0,8.81-6.94,22.46,22.46,0,0,0,2.94-10.38q0-4.81-.13-7.62a59.62,59.62,0,0,0-.81-6.89,47.56,47.56,0,0,0-1.7-7.15q-2.55-7.49-7.91-8.59-0.77,11.23-.77,26.38ZM454,294.93v26q9.19-.25,9.19-22t-7.15-22.63Q454,280.64,454,294.93Z" transform="translate(-105.14 -124.13)" fill="#272726"/><path d="M526.94,308.12l0.17,3q0,77.35-22.46,77.35-8.68.08-12.85-7.06a38.1,38.1,0,0,1-5.28-14.55,226.26,226.26,0,0,1-1.66-25.57q-0.21-14.42-.21-41.65l-0.77-24.93q1.61-3.66,3.7-3.66t3.7,3.19A14.77,14.77,0,0,1,492.9,281v47.4q0,6.21,1.23,18.47t1.23,18.46q0,12.76,11.06,12.76,12.42,0,12.42-93.69V274.6l-0.08-2.89a4.39,4.39,0,0,1,.94-3.06,4.31,4.31,0,0,1,3.28-1,6.6,6.6,0,0,1,3.53.77,3.93,3.93,0,0,1,1.62,2,20.64,20.64,0,0,1,.77,5.62l-1.19,17.53Z" transform="translate(-105.14 -124.13)" fill="#272726"/><path d="M548,327.44l-0.17,18.89q0,23.06,3.32,36.33l-2,4.68H544.3l-2.3-2.55q0.17-7.83.17-17.57t-1.49-41.65q-1.49-31.91-1.49-47.65,0-8.25,5.79-8.25,9.1,0,15.32,4.77T566.51,288v12.25a21.89,21.89,0,0,1-1.87,9.15q-1.87,4.13-4.34,8.68t-2.72,5.06q0.94,4.26,3.32,16.68Q566,367,572.21,378.92a12.67,12.67,0,0,1,1.79,5.32,5,5,0,0,1-1.06,3.23,3.48,3.48,0,0,1-2.85,1.32q-3.66,0-7-8.38a105.45,105.45,0,0,1-5.4-18.59q-6.21-31.23-7.57-34.38H548Zm0.68-51.31-0.6,2.47q0,7.15.34,20.63t0.34,19.61q4.08-2.13,6.59-11.1T557.83,294a69.13,69.13,0,0,0-.26-7,27.18,27.18,0,0,0-1.11-5Q554.76,276.38,548.64,276.13Z" transform="translate(-105.14 -124.13)" fill="#272726"/><path d="M623.18,350.84L624,369.3q0,8.6-6,13.23a22.23,22.23,0,0,1-14,4.64q-12.08,0-17.53-9a35.37,35.37,0,0,1-4.94-12q-1-5.66-1.45-8.72a82.36,82.36,0,0,1-.6-8.25q-0.34-7.23-.34-11.66V330q0-24.59,1.45-31.1A122,122,0,0,1,584,286.76a24.78,24.78,0,0,1,4.59-8.68q6.55-7.49,15.15-7.49t8.59,4.42a4.08,4.08,0,0,1-1.7,3.36,6.08,6.08,0,0,1-3.83,1.32l-3.66-.43q-6,0-9.1,11.91-4.43,17-4.42,41.1,0,16.42,1.06,22.59A85.69,85.69,0,0,0,593,365.22a24,24,0,0,0,2.89,6.81q4,6,10.3,6,8.42,0,8.42-27.74v-8a9.14,9.14,0,0,0-4.08-.68l-3.4.09q-6,0-6-4A4.35,4.35,0,0,1,602.8,334a6.94,6.94,0,0,1,4.21-1.28v0.08h2.38q15.66,0,15.66,5.36Z" transform="translate(-105.14 -124.13)" fill="#272726"/><path d="M216.48,410.63l0.42-.34a1.22,1.22,0,0,1,.69-0.34,8.88,8.88,0,0,1,1.64.46q0,6.09.5,18.22t0.5,19.54q0,7.41.5,14.11l-0.5.88q-0.08-.8-2.4-0.8-0.38-17.33-.38-20.91l-0.19-.3,0.27-.69a18.86,18.86,0,0,0-.27-2.89l-1.22-.3a4.93,4.93,0,0,1-1.56.23l-5-.8-0.8.3-0.23,9.82,0.23,0.34,0.46,13q0,2-1.29,2-1.71,0-1.71-4.68l0.15-14.28a55.84,55.84,0,0,0-.23-7.62q0.38-.76.38-5.18l-0.57-18.24a1.55,1.55,0,0,1,.4-1,1.19,1.19,0,0,1,.93-0.48q1.56,0,1.56,4.53l-0.3,19q0,0.91,6.25.91a3.36,3.36,0,0,0,2.15-.55q0.67-.55.67-3.07T217,421.89q-0.51-7.18-.51-10.76v-0.5Zm-1.18,23.5,0.15,0.15H215.3v-0.15Z" transform="translate(-105.14 -124.13)" fill="#272726"/><path d="M237.61,450.66l-2.06.08a6.31,6.31,0,0,0-2.44-.46,6.2,6.2,0,0,0-1.45.08,0.4,0.4,0,0,0-.15.27,1.21,1.21,0,0,1-.08.27l-0.15,1.56a39.22,39.22,0,0,1-.72,4.76q-1.07,5.45-2.25,5.45a1.68,1.68,0,0,1-1-.42,1.17,1.17,0,0,1-.53-0.91,66.9,66.9,0,0,0,2.06-8.87q1.07-5.94,1.33-7.41t1-5.92l1-5.86q0.23-1.41,1.24-6.09t1.22-6.13q0.21-1.45.48-3.92,0.65-6.09,1-6.78l1.07,0.08a1.92,1.92,0,0,0,1.41-.46,1.63,1.63,0,0,1,1,.32,1,1,0,0,1,.46.86q0,3.73,1,14.43t1.5,13.84q0.55,3.14,1.28,6.17a21.69,21.69,0,0,1,.72,4.63L244,451.26a30.19,30.19,0,0,0,.65,5.16,30.12,30.12,0,0,1,.65,4.8,1.87,1.87,0,0,1-.61,1.73,2.69,2.69,0,0,1-2-.46,2.36,2.36,0,0,1-.36-1.47q0-1-.13-2.48T242,456.21q-0.13-.88-0.46-2.76t-0.4-2.42A14.22,14.22,0,0,0,237.61,450.66Zm-5.48-3.85q0,0.8,1.87,1.33a23.4,23.4,0,0,0,6.32.8h0.8a11.32,11.32,0,0,1-.49-3.5v-1.79a118.86,118.86,0,0,0-1.2-14.09,136,136,0,0,1-1.28-13.79q-4.08,20.14-5,24.89A40.79,40.79,0,0,0,232.13,446.81Z" transform="translate(-105.14 -124.13)" fill="#272726"/><path d="M253.77,430.78l-0.3,15.73q0,6.59,1.26,9.44,1.45,3.35,3.69,4.34a7.14,7.14,0,0,0,3,.65,3.44,3.44,0,0,0,2.3-.69q1.18,0,1.18.84a2,2,0,0,1-1,1.35,9.23,9.23,0,0,1-1.92,1.09h-2.59a12,12,0,0,0-1.83-.69A8.42,8.42,0,0,1,255,461.6a7.73,7.73,0,0,1-2.11-2.7,14.54,14.54,0,0,1-1.41-4.4,56.33,56.33,0,0,1-.69-9.21v-8.91q0-10.4.76-14.24,1.52-7.8,4.15-9.86a8.63,8.63,0,0,1,2.11-1.08,16.51,16.51,0,0,0,2-.86h3.12l0.21,0,0.21,0.06,0.21,0.06,0.19,0.06,0.17,0.08,0.15,0.09a1.1,1.1,0,0,1,.34.8l-1,1.14h-3.27a3.46,3.46,0,0,0-2.78,1.5,10.82,10.82,0,0,0-1.81,3.56,31.35,31.35,0,0,0-1,4.76,56.79,56.79,0,0,0-.57,7.88Z" transform="translate(-105.14 -124.13)" fill="#272726"/><path d="M280,426.86l-0.15,5q0,3.54,2.67,13,3.24,11.35,5.48,14.39a6.23,6.23,0,0,1,1.52,2.89,1.29,1.29,0,0,1-1.33,1.56q-1.83,0-4.4-7a124.16,124.16,0,0,1-4.32-14.49A67.44,67.44,0,0,1,277.55,432l-0.19-.3q-0.27.57-1.24,2.53t-1.35,2.8a14.07,14.07,0,0,0-1.14,5.52l-0.38,5.6v10l0.53,4.46a0.8,0.8,0,0,1-.4.69,2,2,0,0,1-1.12.27,1.58,1.58,0,0,1-1.08-.32,1.76,1.76,0,0,1-.36-1.31V447.23l0.72-9.82,0.76-15.08V411.51a1.33,1.33,0,0,1,1.24-.88,1.72,1.72,0,0,1,1.28.46,1.42,1.42,0,0,1,.46,1,8.32,8.32,0,0,0-.69,3.85q0,2.59-.15,8.11t-0.15,8.26q0.76-.3,6.07-10.76t5.85-10.45q2,0,2.09,1.29A108.84,108.84,0,0,0,280,426.86Z" transform="translate(-105.14 -124.13)" fill="#272726"/><path d="M295.53,461.66l0.08-2-0.27-.3a9.23,9.23,0,0,0,.57-3.2l-0.38-10.28,0.53-23.5-0.3-9.33a2,2,0,0,1,2.25-2.21,1.49,1.49,0,0,1,1.26.5q0.27,0.08,2.25.3,4.8,0.53,4.91,1.94,0,0.61-1.48,1.49a26.28,26.28,0,0,0-6.32-1.49l-0.38.46q0.08,1.1.08,3.35L298,429.52q0,2.17,1.1,2.17l2.63-.15q3,0,3,1.41a2.5,2.5,0,0,1-.4,1.41A1.58,1.58,0,0,1,303,435a1.84,1.84,0,0,1-1.52-.61l-2.55-.38h-0.34l-0.38.38v0.23q0.15,2,.15,6.17l-0.15,11.08q0,7.77,1.07,8.61a4.06,4.06,0,0,0,2.51.57l2.89-.15q2.28,0,2.28,1,0,1.41-3.39,1.41H297.1A1.48,1.48,0,0,1,295.53,461.66Z" transform="translate(-105.14 -124.13)" fill="#272726"/><path d="M312.55,413.22q0-3,1.71-3a9.94,9.94,0,0,1,6.28,1.92,6.73,6.73,0,0,1,2.48,5.66v5.67q0,3-3,8.61a13.76,13.76,0,0,0-1,2q0,0.17,3,12.34T325,459q0.15,0.38.76,1.6a4.87,4.87,0,0,1,.61,2.09,0.77,0.77,0,0,1-.88.88l-1.14-.38q-1.83-2.06-4-15.23-2.09-12.72-3.58-12.72h-0.3q-1.71,0-1.71,1.1,0,4.27.5,14.18t0.84,11.1L315.52,463h-1.14l-0.57-.61Q312.55,428.57,312.55,413.22Zm2.21,1.07,0.3,18.89,0.15,0.15a3.35,3.35,0,0,0,2.67-1.54,10.84,10.84,0,0,0,1.79-3.75,28.69,28.69,0,0,0,1.26-6.93,30.77,30.77,0,0,0-.15-3.56,11.47,11.47,0,0,0-.65-2.53q-1-2.74-4.46-2.74a0.81,0.81,0,0,0-.69.72A4.36,4.36,0,0,0,314.75,414.29Z" transform="translate(-105.14 -124.13)" fill="#272726"/><path d="M340.2,412.58l-1.64-.46a2.84,2.84,0,0,0-2.13,1,6.19,6.19,0,0,0-1.37,2.42,14.89,14.89,0,0,0-1,4.42q0,1.6.08,2.28a14.43,14.43,0,0,0,.29,1.6q0.21,0.91.29,1.29t0.44,1.58q0.36,1.2.4,1.35l0.57,1.41q0.76,1.37,2,3.45T340,436q0.61,1.07,1.41,2.8a17.51,17.51,0,0,1,1.14,3.14,25.82,25.82,0,0,1,1,6.49,36.83,36.83,0,0,1-.23,4.61,18.36,18.36,0,0,1-.86,3.56,13.85,13.85,0,0,1-1.54,3.2A6.63,6.63,0,0,1,335,463l-0.38.19q-2.28-.42-2.51-1.9l0.38-.61,2.82,0.53a4.07,4.07,0,0,0,3.08-1.39,8.85,8.85,0,0,0,1.94-3.52,26.57,26.57,0,0,0,1.14-7.33,20.46,20.46,0,0,0-1-6.36,31.05,31.05,0,0,0-2.34-5.46l-2.74-5a24.16,24.16,0,0,1-3.31-11.77,15.31,15.31,0,0,1,1.07-5.67q1.94-5,5.1-5a3.65,3.65,0,0,1,1.92.67,1.85,1.85,0,0,1,1,1.5Q341.23,412.58,340.2,412.58Zm0.53-.3v0.08h0.08A0.07,0.07,0,0,0,340.73,412.27Z" transform="translate(-105.14 -124.13)" fill="#272726"/><path d="M352.54,447.23l0.65,15.19a1.28,1.28,0,0,1-1.49,1.41l-1.1-.61a62.08,62.08,0,0,1-.88-11.23l0.34-14.51a4.89,4.89,0,0,1-.5-1.79q0.8-1.33.8-7.2,0-13.9-.46-15.12,0.76-1.94,1.14-1.94h3.43a5.79,5.79,0,0,1,2.53.86,15.32,15.32,0,0,1,2.57,1.7q1.94,1.79,1.94,9.21,0,6.59-.57,8a16.76,16.76,0,0,1-1.22,2.44,5.78,5.78,0,0,1-1.64,1.73,18.86,18.86,0,0,1-5.56,2.59v9.29Zm-0.08-31.3,0.38,11.23-0.3,7.35,0.5,0.76q5.71,0,6-12v-2.09q0-1.26-.08-2.13a11.44,11.44,0,0,0-.36-1.94,4.91,4.91,0,0,0-.78-1.71,4.25,4.25,0,0,0-3.62-1.56,1.57,1.57,0,0,0-1.37.5A2.88,2.88,0,0,0,352.46,415.93Z" transform="translate(-105.14 -124.13)" fill="#272726"/><path d="M375.06,450.66l-2.06.08a6.31,6.31,0,0,0-2.44-.46,6.2,6.2,0,0,0-1.45.08,0.4,0.4,0,0,0-.15.27,1.21,1.21,0,0,1-.08.27l-0.15,1.56a39.22,39.22,0,0,1-.72,4.76q-1.07,5.45-2.25,5.45a1.68,1.68,0,0,1-1-.42,1.17,1.17,0,0,1-.53-0.91,66.9,66.9,0,0,0,2.06-8.87q1.07-5.94,1.33-7.41t1-5.92l1-5.86q0.23-1.41,1.24-6.09T372,421q0.21-1.45.48-3.92,0.65-6.09,1-6.78l1.07,0.08a1.92,1.92,0,0,0,1.41-.46,1.63,1.63,0,0,1,1,.32,1,1,0,0,1,.46.86q0,3.73,1,14.43t1.5,13.84q0.55,3.14,1.28,6.17a21.69,21.69,0,0,1,.72,4.63l-0.38,1.07a30.19,30.19,0,0,0,.65,5.16,30.12,30.12,0,0,1,.65,4.8,1.87,1.87,0,0,1-.61,1.73,2.69,2.69,0,0,1-2-.46,2.36,2.36,0,0,1-.36-1.47q0-1-.13-2.48t-0.27-2.34q-0.13-.88-0.46-2.76t-0.4-2.42A14.22,14.22,0,0,0,375.06,450.66Zm-5.48-3.85q0,0.8,1.87,1.33a23.4,23.4,0,0,0,6.32.8h0.8a11.32,11.32,0,0,1-.49-3.5v-1.79a118.86,118.86,0,0,0-1.2-14.09,136,136,0,0,1-1.28-13.79q-4.08,20.14-5,24.89A40.79,40.79,0,0,0,369.58,446.81Z" transform="translate(-105.14 -124.13)" fill="#272726"/><path d="M391.22,430.78l-0.3,15.73q0,6.59,1.26,9.44,1.45,3.35,3.69,4.34a7.14,7.14,0,0,0,3,.65,3.44,3.44,0,0,0,2.3-.69q1.18,0,1.18.84a2,2,0,0,1-1,1.35,9.23,9.23,0,0,1-1.92,1.09h-2.59a12,12,0,0,0-1.83-.69,8.42,8.42,0,0,1-2.46-1.24,7.73,7.73,0,0,1-2.11-2.7,14.54,14.54,0,0,1-1.41-4.4,56.33,56.33,0,0,1-.69-9.21v-8.91q0-10.4.76-14.24,1.52-7.8,4.15-9.86a8.63,8.63,0,0,1,2.11-1.08,16.51,16.51,0,0,0,2-.86h3.12l0.21,0,0.21,0.06,0.21,0.06,0.19,0.06,0.17,0.08,0.15,0.09a1.1,1.1,0,0,1,.34.8l-1,1.14h-3.27a3.46,3.46,0,0,0-2.78,1.5,10.82,10.82,0,0,0-1.81,3.56,31.35,31.35,0,0,0-1,4.76,56.79,56.79,0,0,0-.57,7.88Z" transform="translate(-105.14 -124.13)" fill="#272726"/><path d="M408.45,461.66l0.08-2-0.27-.3a9.23,9.23,0,0,0,.57-3.2l-0.38-10.28L409,422.4l-0.3-9.33a2,2,0,0,1,2.25-2.21,1.49,1.49,0,0,1,1.26.5q0.27,0.08,2.25.3,4.8,0.53,4.91,1.94,0,0.61-1.48,1.49a26.28,26.28,0,0,0-6.32-1.49l-0.38.46q0.08,1.1.08,3.35l-0.3,12.11q0,2.17,1.1,2.17l2.63-.15q3,0,3,1.41a2.5,2.5,0,0,1-.4,1.41,1.58,1.58,0,0,1-1.43.61,1.84,1.84,0,0,1-1.52-.61L411.8,434h-0.34l-0.38.38v0.23q0.15,2,.15,6.17l-0.15,11.08q0,7.77,1.07,8.61a4.06,4.06,0,0,0,2.51.57l2.89-.15q2.28,0,2.28,1,0,1.41-3.39,1.41H410A1.48,1.48,0,0,1,408.45,461.66Z" transform="translate(-105.14 -124.13)" fill="#272726"/><path d="M466.87,460.68q0,1.26-3.26,1.26t-7.33-3.12a23.53,23.53,0,0,1-4.36,2.47,12.2,12.2,0,0,1-4.51.72,7.85,7.85,0,0,1-5-1.9,12.62,12.62,0,0,1-3.58-4.63,12,12,0,0,1-1.24-4.87q0-2.15.06-3.54a19,19,0,0,1,.34-2.86q0.29-1.47.42-2.36a13.36,13.36,0,0,1,.69-2.42q0.55-1.52.72-2.09a19.41,19.41,0,0,1,1-2.3l1-2.13q0.19-.4,1.29-2.53l1.33-2.59-0.53-10.93v-6.47a6.73,6.73,0,0,1,.82-3.64,2.21,2.21,0,0,1,1.69-1.28,7.81,7.81,0,0,1,3.85,1.18q2.06,1.18,2.06,2.82l-0.23,4.65a4.27,4.27,0,0,0,.08,1q-0.57,1.6-1.33,3.81a29.11,29.11,0,0,1-2.82,6.59q-1.75,2.44-1.75,3.58a42.63,42.63,0,0,0,1.5,8.43,92.52,92.52,0,0,0,3.81,11.94q2.3,5.83,4.09,6.36,3-6,3-15.12,0-1.33-.69-1.22a1.12,1.12,0,0,1-1.18-.5l0.08-.15-0.15-.5,0.23-.38q1.33,0,4.47-.32a20.79,20.79,0,0,0,3.94-.63,1.24,1.24,0,0,1,1.33,1.18q0,0.57-1.31.91a10.16,10.16,0,0,1-2.57.34l-1.87-.08h-0.49a61.11,61.11,0,0,1-.67,9.94,27,27,0,0,1-2.68,7.84,7.88,7.88,0,0,0,6,3.12L466,460Zm-26.2-21.31a28.23,28.23,0,0,0-1.41,8.05,23.53,23.53,0,0,0,.5,5.43,15.42,15.42,0,0,0,1.49,3.79,7.23,7.23,0,0,0,6.78,3.88,12.37,12.37,0,0,0,4.07-.93q2.51-.93,2.63-2.19a11.52,11.52,0,0,0-1.56-1.79,22.1,22.1,0,0,1-4.44-7.69,54.57,54.57,0,0,1-2.51-8q-0.55-2.78-.82-5.12a20.54,20.54,0,0,0-.65-3.56A25.14,25.14,0,0,0,440.67,439.38Zm5.29-19.1a3.88,3.88,0,0,0-.15,1.2,18.51,18.51,0,0,0,.11,1.85q0.11,1.1.11,1.71,1.33-1.22,3-6a24.88,24.88,0,0,0,1.64-6.93q0-4.68-2.89-4.68a2,2,0,0,0-1.28,1.12,3.62,3.62,0,0,0-.74,1.7l0.08,9.67Zm17.17,26.12a0.07,0.07,0,0,1,.08.08Z" transform="translate(-105.14 -124.13)" fill="#272726"/><path d="M516.37,446.73l-0.15,8.19A31.83,31.83,0,0,0,517,463a3.11,3.11,0,0,1,.15,1,3.21,3.21,0,0,1-.48,1.41,1.41,1.41,0,0,1-1.24.88q-1.56,0-1.56-5,0-16.26-.25-19.82t-0.53-5.77a28.48,28.48,0,0,1-.29-3.39l0.3-9.67a14.47,14.47,0,0,0-.3-3.69q-1.52,1.22-9.37,32.86a8.53,8.53,0,0,0-.17,1.14q-0.1.88-.23,1.62t-0.36,1.54q-0.5,1.75-1.6,1.75a2.23,2.23,0,0,1-1.81-.63,3,3,0,0,1-.51-1.92q0-3.2-4-19.34t-5.41-17.48q-0.19,4.19-.69,12.83-1,18-1,24.18t0.08,7.2a1.53,1.53,0,0,1-1.64,1,1.59,1.59,0,0,1-.8-0.42,1.12,1.12,0,0,1-.53-0.69q0-8.23,1.22-24.6t1.22-24.6L486.67,412q0-1.18,2.09-1.18a1.47,1.47,0,0,1,1.52,1.22,9.21,9.21,0,0,1,.32,2,19.3,19.3,0,0,0,.29,2.29,30.53,30.53,0,0,0,2,5.25,46.88,46.88,0,0,1,2.15,5.39q0.38,1.41,1,3.46,1.26,4.46,1.68,6.7l1,2.06q0.23,1.29.88,3.81a42,42,0,0,1,1.37,8.42q0.91-1.37,4.91-16.13t4.36-16.7q0.36-1.94.51-3t0.3-1.6q0.15-.59.42-1.43a2,2,0,0,1,1.9-1.6,2.43,2.43,0,0,1,1.22.46,1.24,1.24,0,0,1,.72,1Q515.34,445,516.37,446.73Zm-3.58-28.22h-0.08l-0.11.08,0.19,0.08v-0.15Z" transform="translate(-105.14 -124.13)" fill="#272726"/><path d="M533.77,450.66l-2.06.08a6.31,6.31,0,0,0-2.44-.46,6.2,6.2,0,0,0-1.45.08,0.4,0.4,0,0,0-.15.27,1.21,1.21,0,0,1-.08.27l-0.15,1.56a39.22,39.22,0,0,1-.72,4.76q-1.07,5.45-2.25,5.45a1.68,1.68,0,0,1-1-.42,1.17,1.17,0,0,1-.53-0.91,66.9,66.9,0,0,0,2.06-8.87q1.07-5.94,1.33-7.41t1-5.92l1-5.86q0.23-1.41,1.24-6.09t1.22-6.13q0.21-1.45.48-3.92,0.65-6.09,1-6.78l1.07,0.08a1.92,1.92,0,0,0,1.41-.46,1.63,1.63,0,0,1,1,.32,1,1,0,0,1,.46.86q0,3.73,1,14.43t1.5,13.84q0.55,3.14,1.28,6.17a21.69,21.69,0,0,1,.72,4.63l-0.38,1.07a30.19,30.19,0,0,0,.65,5.16,30.12,30.12,0,0,1,.65,4.8,1.87,1.87,0,0,1-.61,1.73,2.69,2.69,0,0,1-2-.46,2.36,2.36,0,0,1-.36-1.47q0-1-.13-2.48t-0.27-2.34q-0.13-.88-0.46-2.76t-0.4-2.42A14.22,14.22,0,0,0,533.77,450.66Zm-5.48-3.85q0,0.8,1.87,1.33a23.4,23.4,0,0,0,6.32.8h0.8a11.32,11.32,0,0,1-.49-3.5v-1.79a118.86,118.86,0,0,0-1.2-14.09,136,136,0,0,1-1.28-13.79q-4.08,20.14-5,24.89A40.79,40.79,0,0,0,528.29,446.81Z" transform="translate(-105.14 -124.13)" fill="#272726"/><path d="M556.76,426.86l-0.15,5q0,3.54,2.67,13,3.24,11.35,5.48,14.39a6.23,6.23,0,0,1,1.52,2.89,1.29,1.29,0,0,1-1.33,1.56q-1.83,0-4.4-7a124.16,124.16,0,0,1-4.32-14.49A67.44,67.44,0,0,1,554.36,432l-0.19-.3q-0.27.57-1.24,2.53t-1.35,2.8a14.07,14.07,0,0,0-1.14,5.52l-0.38,5.6v10l0.53,4.46a0.8,0.8,0,0,1-.4.69,2,2,0,0,1-1.12.27,1.58,1.58,0,0,1-1.08-.32,1.76,1.76,0,0,1-.36-1.31V447.23l0.72-9.82,0.76-15.08V411.51a1.33,1.33,0,0,1,1.24-.88,1.72,1.72,0,0,1,1.28.46,1.42,1.42,0,0,1,.46,1,8.32,8.32,0,0,0-.69,3.85q0,2.59-.15,8.11t-0.15,8.26q0.76-.3,6.07-10.76T563,411.13q2,0,2.09,1.29A108.84,108.84,0,0,0,556.76,426.86Z" transform="translate(-105.14 -124.13)" fill="#272726"/><path d="M572.34,461.66l0.08-2-0.27-.3a9.23,9.23,0,0,0,.57-3.2l-0.38-10.28,0.53-23.5-0.3-9.33a2,2,0,0,1,2.25-2.21,1.49,1.49,0,0,1,1.26.5q0.27,0.08,2.25.3,4.8,0.53,4.91,1.94,0,0.61-1.48,1.49a26.28,26.28,0,0,0-6.32-1.49l-0.38.46q0.08,1.1.08,3.35l-0.3,12.11q0,2.17,1.1,2.17l2.63-.15q3,0,3,1.41a2.5,2.5,0,0,1-.4,1.41,1.58,1.58,0,0,1-1.43.61,1.84,1.84,0,0,1-1.52-.61l-2.55-.38h-0.34l-0.38.38v0.23q0.15,2,.15,6.17L575,451.84q0,7.77,1.07,8.61a4.06,4.06,0,0,0,2.51.57l2.89-.15q2.28,0,2.28,1,0,1.41-3.39,1.41H573.9A1.48,1.48,0,0,1,572.34,461.66Z" transform="translate(-105.14 -124.13)" fill="#272726"/><path d="M589.35,413.22q0-3,1.71-3a9.94,9.94,0,0,1,6.28,1.92,6.73,6.73,0,0,1,2.48,5.66v5.67q0,3-3,8.61a13.76,13.76,0,0,0-1,2q0,0.17,3,12.34T601.8,459q0.15,0.38.76,1.6a4.87,4.87,0,0,1,.61,2.09,0.77,0.77,0,0,1-.88.88l-1.14-.38q-1.83-2.06-4-15.23-2.09-12.72-3.58-12.72h-0.3q-1.71,0-1.71,1.1,0,4.27.5,14.18t0.84,11.1L592.32,463h-1.14l-0.57-.61Q589.35,428.57,589.35,413.22Zm2.21,1.07,0.3,18.89,0.15,0.15a3.35,3.35,0,0,0,2.67-1.54,10.84,10.84,0,0,0,1.79-3.75,28.69,28.69,0,0,0,1.26-6.93,30.77,30.77,0,0,0-.15-3.56,11.47,11.47,0,0,0-.65-2.53q-1-2.74-4.46-2.74a0.81,0.81,0,0,0-.69.72A4.36,4.36,0,0,0,591.56,414.29Z" transform="translate(-105.14 -124.13)" fill="#272726"/><path d="M611.72,447.23l0.65,15.19a1.28,1.28,0,0,1-1.49,1.41l-1.1-.61A62.07,62.07,0,0,1,608.9,452l0.34-14.51a4.9,4.9,0,0,1-.5-1.79q0.8-1.33.8-7.2,0-13.9-.46-15.12,0.76-1.94,1.14-1.94h3.43a5.8,5.8,0,0,1,2.53.86,15.35,15.35,0,0,1,2.57,1.7q1.94,1.79,1.94,9.21,0,6.59-.57,8a16.81,16.81,0,0,1-1.22,2.44,5.78,5.78,0,0,1-1.64,1.73,18.86,18.86,0,0,1-5.56,2.59v9.29Zm-0.08-31.3L612,427.16l-0.3,7.35,0.5,0.76q5.71,0,6-12v-2.09q0-1.26-.08-2.13a11.5,11.5,0,0,0-.36-1.94,4.9,4.9,0,0,0-.78-1.71,4.25,4.25,0,0,0-3.62-1.56,1.57,1.57,0,0,0-1.37.5A2.88,2.88,0,0,0,611.64,415.93Z" transform="translate(-105.14 -124.13)" fill="#272726"/><path d="M629.87,460.48l7.35,0.23h0.23a1.08,1.08,0,0,1,.8.44,1.36,1.36,0,0,1,.38.89q0,0.88-1.26,1-2-.08-6.47-0.08l0.15,0.08-2.89.27q-1.1,0-1.29-1.79a15,15,0,0,0,.15-2.59l0.46-41.58,0.38-5.14a0.49,0.49,0,0,1,.57-0.53l1.29,0.3-0.08,6.17,0.08,17q-0.23,6.4-.23,6.55l0.15,6.63-0.23.65,0.08-.08-0.08.61a2.45,2.45,0,0,0,.23,1.1L629.42,458v0.5a9.91,9.91,0,0,0,.08,1.58A0.38,0.38,0,0,0,629.87,460.48Z" transform="translate(-105.14 -124.13)" fill="#272726"/><path d="M655,450.66l-2.06.08a6.32,6.32,0,0,0-2.44-.46,6.2,6.2,0,0,0-1.45.08,0.39,0.39,0,0,0-.15.27,1.24,1.24,0,0,1-.08.27l-0.15,1.56a39.12,39.12,0,0,1-.72,4.76q-1.07,5.45-2.25,5.45a1.68,1.68,0,0,1-1-.42,1.17,1.17,0,0,1-.53-0.91,67,67,0,0,0,2.06-8.87q1.07-5.94,1.33-7.41t1-5.92l1-5.86q0.23-1.41,1.24-6.09T651.9,421q0.21-1.45.48-3.92,0.65-6.09,1-6.78l1.07,0.08a1.92,1.92,0,0,0,1.41-.46,1.62,1.62,0,0,1,1,.32,1,1,0,0,1,.46.86q0,3.73,1,14.43t1.5,13.84q0.55,3.14,1.28,6.17a21.73,21.73,0,0,1,.72,4.63l-0.38,1.07a30.09,30.09,0,0,0,.65,5.16,30.24,30.24,0,0,1,.65,4.8,1.87,1.87,0,0,1-.61,1.73,2.69,2.69,0,0,1-2-.46,2.37,2.37,0,0,1-.36-1.47q0-1-.13-2.48t-0.27-2.34q-0.13-.88-0.46-2.76t-0.4-2.42A14.22,14.22,0,0,0,655,450.66Zm-5.48-3.85q0,0.8,1.87,1.33a23.41,23.41,0,0,0,6.32.8h0.8a11.32,11.32,0,0,1-.5-3.5v-1.79a118.84,118.84,0,0,0-1.2-14.09,135.72,135.72,0,0,1-1.28-13.79q-4.08,20.14-5,24.89A40.77,40.77,0,0,0,649.48,446.81Z" transform="translate(-105.14 -124.13)" fill="#272726"/><path d="M671.13,430.78l-0.3,15.73q0,6.59,1.26,9.44,1.45,3.35,3.69,4.34a7.14,7.14,0,0,0,3,.65,3.44,3.44,0,0,0,2.3-.69q1.18,0,1.18.84a2,2,0,0,1-1,1.35,9.24,9.24,0,0,1-1.92,1.09h-2.59a12,12,0,0,0-1.83-.69,8.43,8.43,0,0,1-2.46-1.24,7.73,7.73,0,0,1-2.11-2.7,14.56,14.56,0,0,1-1.41-4.4,56.33,56.33,0,0,1-.69-9.21v-8.91q0-10.4.76-14.24,1.52-7.8,4.15-9.86a8.62,8.62,0,0,1,2.11-1.08,16.43,16.43,0,0,0,2-.86h3.12l0.21,0,0.21,0.06,0.21,0.06,0.19,0.06,0.17,0.08,0.15,0.09a1.1,1.1,0,0,1,.34.8l-1,1.14h-3.27a3.47,3.47,0,0,0-2.78,1.5,10.82,10.82,0,0,0-1.81,3.56,31.29,31.29,0,0,0-1,4.76,56.79,56.79,0,0,0-.57,7.88Z" transform="translate(-105.14 -124.13)" fill="#272726"/><path d="M688.36,461.66l0.08-2-0.27-.3a9.23,9.23,0,0,0,.57-3.2l-0.38-10.28,0.53-23.5-0.3-9.33a2,2,0,0,1,2.25-2.21,1.49,1.49,0,0,1,1.26.5q0.27,0.08,2.25.3,4.8,0.53,4.91,1.94,0,0.61-1.49,1.49a26.29,26.29,0,0,0-6.32-1.49l-0.38.46q0.08,1.1.08,3.35l-0.3,12.11q0,2.17,1.1,2.17l2.63-.15q3,0,3,1.41a2.5,2.5,0,0,1-.4,1.41,1.58,1.58,0,0,1-1.43.61,1.84,1.84,0,0,1-1.52-.61l-2.55-.38h-0.34l-0.38.38v0.23q0.15,2,.15,6.17L691,451.84q0,7.77,1.07,8.61a4.06,4.06,0,0,0,2.51.57l2.89-.15q2.29,0,2.29,1,0,1.41-3.39,1.41h-6.44A1.48,1.48,0,0,1,688.36,461.66Z" transform="translate(-105.14 -124.13)" fill="#272726"/><path d="M154.37,327.25l2.19-5.41,1.22,1.76c0.24,1.29,0,3,.8,3.8,1.44,1.56,11.46.56,12.95-1A2.16,2.16,0,0,0,172,325c0-3.81.29-7.64,0-11.42-0.21-2.41-1.49-.62-2.32-0.12l2.59-9.11,0.42-.7-0.36.79a22.36,22.36,0,0,0-.82-3.55,7.1,7.1,0,0,0-1.59-1.79c-0.87-1.14-1.68-3-3-.38-0.73,1.48-1.35,3-2,4.54l-6,7.6-0.61-.7a6.67,6.67,0,0,1,0-1.53c0.47-1.8,3.41-3,1.32-5.44s-3.46-5.73-7.73-5c-2.79.49-5.65,0.64-8.45,1.13-4.49.78-9.39-.72-14.09-1.42-0.45-.07-0.61-1.38-1.11-2a11.79,11.79,0,0,0-2.9-2.77c-0.92-.51-2.21-0.36-3.33-0.51l2.89-1.26a1,1,0,0,0,.45-0.2,4.33,4.33,0,0,0,.15-1.25c-3.77-1.09,2.93-5.69-2.39-6.64-3.72-.66-4.29-3.37-1.28-5.85s4.1-4.84,2.44-8.52c-0.49-1.1.09-2.67,0.17-4,0.25-4.33.64-8.65-1-12.86-0.4-1-.51-2.84.07-3.35,3-2.62,1.85-6.16,2.48-9.29l0.41-.31a11.91,11.91,0,0,1,.87,2.84c0.09,1.76.7,2.27,2.57,2.24,9-.14,18-0.39,27,0,7.91,0.36,7.77.71,7.93-7.35,0.22-10.89.67-21.77,1-32.65,0.22-7.29-.15-7.92-7.39-9.14a46.76,46.76,0,0,0-10.41-.53c-5.68.33-11.32,1.27-17,1.65-3.39.23-3.81,2-3.67,4.83,0.17,3.3.09,6.63,0,9.94a15.3,15.3,0,0,1-.79,3.18,28.36,28.36,0,0,1-.54-2.91c-0.12-1.39-.06-2.79-0.14-4.18-0.35-6.13-.36-6.12-6.39-7.46-1.79-.4-2.92-1.08-3.21-3.36-0.49-3.9-1.67-7.69,2.3-10.6,0.27-.19-2.28-1.62.19-2.33,1.43-.41,2.82-1,4.23-1.46a22.06,22.06,0,0,1-3.79-1.81c-0.74-.54-1.68-1.74-1.53-2.43,0.77-3.51-1.5-3.08-3.58-3.09-3,0-5.93-.09-8.89-0.14V158.69c1.59-.08,3.18-0.26,4.76-0.21,3.05,0.09,6.11.48,9.15,0.36a3.13,3.13,0,0,0,2-2.39c-0.27-2.09-1.38-4.06-1.71-6.14-0.45-2.81-1.69-7.29-.45-8.21,2.87-2.16,3-4.5,3.26-7.37,0.12-1.15,1.29-2.18,2-3.27a16.18,16.18,0,0,1,1.4,3.37c0.54,3.15,1.75,4.21,4.84,3.84,4-.48,7.9-1.25,11.86-1.4,3.71-.15,4.81-2,4.72-5.3-0.07-2.61.07-5.22,0.12-7.83h2.09c0,3.13.2,6.26,0,9.37s0.94,4.28,4.12,4.4a30.9,30.9,0,0,1,16.64,5.31c3.64,2.5,3.74,3.7-.14,5.72-3.56,1.85-2.35,4.55-2.07,7.17,0,0.29,1.16.4,1.71,0.72,1.7,1,3.36,2,5,3-0.67,0-1.35,0-2,0s-1.1.14-1.65,0.21a5.3,5.3,0,0,0,1.78.48,6.18,6.18,0,0,0,1.79-.77c1.92,1.11,3.31,2.25,2.34,5-0.43,1.21.59,2.87,0.59,4.32a12.45,12.45,0,0,1-.88,3.26,3.6,3.6,0,0,0-1.49-.67,36.75,36.75,0,0,0-3.77.74l1.16-1.47-0.71-.21-0.35,1.76a3.36,3.36,0,0,0-1.16.93c0.53,2.68,1.09,5.36,1.87,8,0.25,0.83,1.17,1.47,1.78,2.2a10.55,10.55,0,0,0,1.4-2.68c0.56-2.87.91-5.79,1.35-8.69,0,7.86.31,15.69,1.89,23.43,0.13,0.63-.91,1.77-1.67,2.25A21.35,21.35,0,0,1,172,200c-5,1.63-5,1.57-5,7,0,12.37-.46,24.75,0,37.11,0.17,4.94.84,9.84,0.06,14.78-0.33,2.07.5,3,2.63,2.16,1-.37,2-1.09,2.92-1a14.19,14.19,0,0,1,3.62,1.2c-0.49,1.16-.75,2.52-1.54,3.41s-2.11,1.17-3.13,1.83c-1.4.91-2.74,1.92-4.1,2.88,1.56,1.47,2.89,3.39,4.72,4.31,4.17,2.11,4.41,3,.74,6.21-1.93,1.69-1.92,6.82.09,8.42,0.11,0.09.81-.72,1.32-0.9,1-.36,2.13-0.57,3.19-0.85a19.12,19.12,0,0,1,0,3.09c-0.16,1-.8,1.89-0.93,2.87-0.46,3.33-.8,6.67-1.16,10s-0.94,6.75-1,10.13c-0.15,12.55-.13,25.11-0.1,37.66a10.06,10.06,0,0,0,.9,3.92c6.17,13.89,6.58,28.29,3.83,43a42.67,42.67,0,0,1-1.64,7.06c-0.59,1.59.13,4.56-3.28,4.17a10.45,10.45,0,0,0-.8,2.61c-1.39,5.72-2.51,11.51-4.25,17.12-0.7,2.26-2.74,4.09-4.15,6.13a3.68,3.68,0,0,0-.92,1.7c0.07,6.81-4.55,11.78-6.94,17.6-4,9.77-8.54,19.33-12.82,29-0.35.78-.4,1.7-0.76,2.47a3.93,3.93,0,0,1-1.15,1,5.29,5.29,0,0,1-.78-1.24c-0.82-2.83-1.41-5.74-2.41-8.5-3.7-10.13-7.41-20.25-11.34-30.28-3.37-8.6-7-17.09-10.62-25.6-2.07-4.9-5-9.56-6.24-14.64-3.31-13.94-5.54-28.07-.06-42.08,1.24-3.18,2.66-6.3,4.12-9.39,1.21-2.57,2.49-5,.27-7.75-0.58-.73-0.24-2.26-0.18-3.41s0.37-2.39.49-3.59c0.28-2.73.41-5.48,0.8-8.19s4.56-2.41,5-5.7c0.13-1,3-1.21,3.47.86,0.63,2.75,1.87,2.75,4.12,1.93,1.41-.51,3.14-0.09,4.63-0.47a6.9,6.9,0,0,0,3.08-1.83c2.36-2.43,3.16-2.33,4.58.78a4.32,4.32,0,0,0,1.28,1.11,10,10,0,0,0,1.27-1.89,13.53,13.53,0,0,0,.48-2.5,19.31,19.31,0,0,1,.74,2.54c0.5,3.3,3.35,2.37,4.32,1.5,1.83-1.65,3.42-.67,5.14-0.64l0.36,0.81,0.45-.36ZM173.2,186l-0.86-.85-0.38.49,1.34,0.26a8.32,8.32,0,0,0,.67.6,0.65,0.65,0,0,0,.33-0.08ZM147,449.75l0.5-.58-0.4.68-1.2,0c-0.75-6,5.25-9.11,6.23-14.43,0.24-1.32,1.76-2.38,2.09-3.71,2.85-11.32,5.54-22.67,8.36-34a2.35,2.35,0,0,1,1.48-1.53,3.11,3.11,0,0,1,2,1,4.37,4.37,0,0,1,.49,1.44c0.37,0.87.79,1.71,1.19,2.57a13.17,13.17,0,0,0,.79-3c0.16-5.56.18-11.12,0.33-16.68a13.38,13.38,0,0,1,.71-2.86,18.6,18.6,0,0,1,2.38,1.84,12.36,12.36,0,0,1,1.37,2.2,4,4,0,0,0-.38.35,1.8,1.8,0,0,0-.18.33l0.48-.76c0.55-4.53,2.18-9.28,1.31-13.52-0.65-3.18-2.05-6.16-2-9.67,0-1.76-1.21-4.83-2.4-5.11a46.13,46.13,0,0,0-12.49-1.23c-11.26.46-22.49,1-33.69-.86-1.38-.23-3.85.46-4.34,1.45-2,4-4.94,7.88-4.15,12.92a49.25,49.25,0,0,1,.23,6.75,14,14,0,0,1-.18,1.75,10.58,10.58,0,0,1,1.2-1.52,17.87,17.87,0,0,1,1.92-1.33l0.17,2.08c-2.54,4.86.09,9.4,0.9,14.05a3.39,3.39,0,0,0,.64,1c0.1-.5.22-1,0.28-1.51,0.08-.69.1-1.38,0.15-2.07,2.2,7.22,4.49,14.42,6.56,21.68a43.82,43.82,0,0,1,.87,6.61l-0.43,1.42,0.34-1.5c1.16,2,3.61,3.85,1.07,6.49-0.07-.13-0.14-0.27-0.22-0.39s-0.19-.24-0.28-0.36l0.58,0.67a2.81,2.81,0,0,0,0,1c3.49,1.25,3.34,5,5,7.43a2.67,2.67,0,0,1-.16,1.37,3.21,3.21,0,0,1-1.34-.39,15.41,15.41,0,0,1-1.52-2l-0.49-1.74a0.8,0.8,0,0,0-.16.38c0.22,0.44.48,0.86,0.73,1.28,1.94,8.47,4.41,16.69,10.65,23.18l-0.1-.08,2.59,3.88a25.93,25.93,0,0,1,.32-3.6,4.59,4.59,0,0,1,1.19-1.49l0.75,0.93ZM115.82,173.1c2.81-.55,5.86-1.1,8.87-1.82,0.32-.08.39-1.18,0.57-1.8-2.81-.13-7-1.44-8.13-0.13-2.31,2.77-4.66,1.38-7,1.81-0.66.12-1.3,0.33-1.95,0.5a6.24,6.24,0,0,0,1.64.78C111.72,172.7,113.59,172.86,115.82,173.1Zm7.77,25.28c0.66-.63,1.62-1.51,2.55-2.42a14.11,14.11,0,0,0,1-1.17c-1.12,0-2.24.08-3.36,0.15a7,7,0,0,0-1.53.21c-1.26.37-2.51,0.8-3.76,1.21l3.8,1.5ZM114.1,163c-3.1,0-4.41,1.59-3.36,3.76a3,3,0,0,0,2.42,1,8.3,8.3,0,0,0,2.67-1.22,21.56,21.56,0,0,1-2.35-.69,9.31,9.31,0,0,1-1.52-1,9.78,9.78,0,0,1,1.53-1,11.76,11.76,0,0,1,1.9-.49Zm57.32,32.4c-1.9.25-4.28-.64-3.52,2.23,0.11,0.42,2.65.43,4,.19,0.75-.14,1.34-1.18,2-1.81ZM109.18,164l-0.73-2.55c-0.36,1.18-.74,2.36-1.06,3.56a1.74,1.74,0,0,0,0,1c0.29,0.77.67,1.51,1,2.26,0.25-.75.54-1.49,0.75-2.25A12.35,12.35,0,0,0,109.18,164Zm61.06,15.64-1-3.1a9.32,9.32,0,0,0-1.16,2.95c0,0.94.65,1.91,1,2.86Zm-4.51-5.12,2.19-2.58a2.89,2.89,0,0,0-1.09-.46,11.39,11.39,0,0,0-1.67,2A3.17,3.17,0,0,0,165.74,174.5Zm-24.17,15.63,3.16-.48a15.57,15.57,0,0,0-2.64-.5,21.66,21.66,0,0,0-3,.32Zm0-31.37,2.36-.53a5,5,0,0,0-1.37-.41A24.73,24.73,0,0,0,140,158Zm21.4,143.16a5.45,5.45,0,0,0,1-1.76,1.37,1.37,0,0,0-.94-1,3.3,3.3,0,0,0-1.38.67ZM113.37,161.83l2-.71a11.67,11.67,0,0,0-2-.26,11.25,11.25,0,0,0-1.94.39Zm61.73,30a30,30,0,0,0-3-1,3,3,0,0,0-.67.93,13.12,13.12,0,0,0,2.13,1.19C173.85,193,174.31,192.47,175.11,191.87Zm-15.88,53.73-1.3,1a1.89,1.89,0,0,0,.87.33,15,15,0,0,0,1.88-.7Zm-36.74-54.25a4.94,4.94,0,0,0-1.5-1,2.32,2.32,0,0,0-.86.85,3.43,3.43,0,0,0,1.1.72A3.19,3.19,0,0,0,122.49,191.36Zm20.56-45.75,1-1.06a3.74,3.74,0,0,0-1.36-.36,2.52,2.52,0,0,0-.94.77Zm21.3,38.94a2.48,2.48,0,0,0-.57-0.9,10.6,10.6,0,0,0-1.74.25,1.4,1.4,0,0,0,.38.62A16.79,16.79,0,0,0,164.35,184.56Zm6.49,109a7.37,7.37,0,0,0-1.16-.54,1.48,1.48,0,0,0-.37.74,5.2,5.2,0,0,0,1,.74Zm2.71-105.08a9.44,9.44,0,0,0-1.34-.77,1.64,1.64,0,0,0-.77.17,12.37,12.37,0,0,0,1.38,1A1.77,1.77,0,0,0,173.56,188.45Zm-45.26,82.18-1.06,1.25a1.91,1.91,0,0,0,.68.45,15.87,15.87,0,0,0,1.54-1.15Zm24.78,80-0.29-.94a2.08,2.08,0,0,0-.85.35,2.92,2.92,0,0,0,.31,1ZM148.59,189.2l-0.84.36a2.45,2.45,0,0,0,.83.33,2.49,2.49,0,0,0,.84-0.32Zm23.31-23.64a2.75,2.75,0,0,0,.49.83,1.5,1.5,0,0,0,.71-0.22A0.67,0.67,0,0,0,171.9,165.56Zm-50.39-.09a5.61,5.61,0,0,0-.91-0.17,0.9,0.9,0,0,0-.36.29,2.09,2.09,0,0,0,.54.52A3.36,3.36,0,0,0,121.51,165.47Zm41.69,81.67a2.24,2.24,0,0,0,.54.77,1.55,1.55,0,0,0,.8-0.16,1.64,1.64,0,0,0-.41-0.77A2,2,0,0,0,163.2,247.14Zm-36.77,165,0.31,0-0.12-.42Zm48.29-7,0.19-.36-0.27-.05Zm-39.24-54.51-0.43.19,0.43,0.16v-0.35Zm36.4-13.92-0.22-.41a0.94,0.94,0,0,0-.28.34,2.08,2.08,0,0,0,.37.5Zm-33-43.58-0.45-.14,0,0.56a1.68,1.68,0,0,0,.46-0.11A0.63,0.63,0,0,0,138.9,293.13Zm-11.17-3.06a0.88,0.88,0,0,0-.32.31,4.8,4.8,0,0,0,.27.81,0.87,0.87,0,0,0,.31-0.31A4.51,4.51,0,0,0,127.72,290.07Zm21-43.84,0.41,0.13-0.26-.42Zm5.31-54.46a1.54,1.54,0,0,0,.44.11,0.69,0.69,0,0,0,.15-0.28,1.55,1.55,0,0,0-.44-0.11A0.69,0.69,0,0,0,154.07,191.77ZM122,162.62l0.38-.22a1,1,0,0,0-.31-0.27,2.31,2.31,0,0,0-.47.37Zm-0.78-2.2a0.68,0.68,0,0,0-.11-0.34,1.53,1.53,0,0,0-.49-0.08l0.13,0.6Zm4-1,0.41-.24a1,1,0,0,0-.35-0.29,2.36,2.36,0,0,0-.5.4Zm41.32-13.78a0.76,0.76,0,0,0-.27-0.29,1,1,0,0,0-.42.14,0.94,0.94,0,0,0,.33.28A0.78,0.78,0,0,0,166.51,145.69Z" transform="translate(-105.14 -124.13)" fill="#272726"/><path d="M118.68,289.58c0.18,5.37.18,5.37,6.07,7.27,0.48,0.16,1,.34,1.44.52a16.37,16.37,0,0,1-1.57.78c-0.6.23-1.23,0.35-1.85,0.52l1.56,0.08c0.87,0,1.74,0,2.61.13a12.26,12.26,0,0,1,1.51.33,5.83,5.83,0,0,0-1.16,1.19c-0.74,1.4-1.86,2.82-2,4.28-0.3,4.69-.17,9.4-0.27,14.1a19.55,19.55,0,0,1-.45,3.6,3.42,3.42,0,0,1-.92,1.13,3.7,3.7,0,0,1-.78-1.48c0.23-5.91.55-11.81,0.84-17.71,0.12-2.32.53-4.61-3.25-4.2-1.32.14-2.9-1-4.16-1.79A3.8,3.8,0,0,1,115,296c-0.3-1.66-.14-3.4-0.44-5.05-0.84-4.53-.9-4.52,4.06-4.34a6.87,6.87,0,0,1,.08.95l0.07-.12v2.24Z" transform="translate(-105.14 -124.13)" fill="#272726"/><path d="M169.27,313.63c0.22,0.85.41,1.72,0.65,2.56,0.44,1.54.18,3.29-1.62,2.75-3.61-1.09-5.25,1.43-7.47,3.13a12.34,12.34,0,0,1-2.71,1.2l1.47-2.33,3.15-3.09-0.13-1.22,0,0.07,1.35,0.07,3.07-3.14-0.11.09Z" transform="translate(-105.14 -124.13)" fill="#272726"/><path d="M158.87,310.88c-3.49,2.76-7,5.55-10.49,8.26a5.77,5.77,0,0,1-1.82.59c0.27-.67.35-1.6,0.85-2,3.57-2.6,7.23-5.08,10.85-7.6Z" transform="translate(-105.14 -124.13)" fill="#272726"/><path d="M118.71,287.57a3.33,3.33,0,0,1,.43-0.29l3.68-1.73a3.33,3.33,0,0,1,.12,1.26c-0.5,1.55-.71,3.52-3.23,2.75a3.21,3.21,0,0,0-1,0l0.1,0.1q0-1.12,0-2.24Z" transform="translate(-105.14 -124.13)" fill="#272726"/><path d="M125.93,239.45c-0.18-2.45-.36-4.9-0.49-7.35a4.06,4.06,0,0,1,.85-0.22l0,7.26Z" transform="translate(-105.14 -124.13)" fill="#272726"/><path d="M127.56,223.82l-1.08,5a28.49,28.49,0,0,1-.71-5.08,50.72,50.72,0,0,1,.94-6.24Z" transform="translate(-105.14 -124.13)" fill="#272726"/><path d="M169.35,308.77l-2.47,5,0.11-.09h-2.21l0.08,0.07,3.95-5.45Z" transform="translate(-105.14 -124.13)" fill="#272726"/><path d="M149.55,324.15c-1,.95-1.66,1.64-2.41,2.22a3.39,3.39,0,0,1-1-.64c0.67-.71,1.3-1.44,2-2.08A4,4,0,0,1,149.55,324.15Z" transform="translate(-105.14 -124.13)" fill="#272726"/><path d="M163.92,316.78l-1.35-.07,2.29-3-0.08-.07Z" transform="translate(-105.14 -124.13)" fill="#272726"/><path d="M159.66,321.07l-2.25,0,1.64-1.75Z" transform="translate(-105.14 -124.13)" fill="#272726"/><path d="M168.81,308.25l1.49-1.49-0.95,2Z" transform="translate(-105.14 -124.13)" fill="#272726"/><path d="M164.78,303.2l2.18-1.06C167,304.08,166.27,304.41,164.78,303.2Z" transform="translate(-105.14 -124.13)" fill="#272726"/><path d="M166.91,302.2l2.2-2.47Z" transform="translate(-105.14 -124.13)" fill="#272726"/><path d="M125.71,295.13a2.3,2.3,0,0,1-.8.66,7.19,7.19,0,0,1-1.42-.33,1.62,1.62,0,0,1,.63-0.54A8.73,8.73,0,0,1,125.71,295.13Z" transform="translate(-105.14 -124.13)" fill="#272726"/><path d="M162.62,316.65l0.13,1.22-1.28-.48Z" transform="translate(-105.14 -124.13)" fill="#272726"/><path d="M120.88,386l-2.15-11.66C122.12,377.75,120.77,382,120.88,386Z" transform="translate(-105.14 -124.13)" fill="#272726"/><path d="M142,451.07c-0.59-1.56-1.22-3.11-1.76-4.7a3.63,3.63,0,0,1,.1-1.35,2,2,0,0,1,.74.57c0.68,1.73,2.81,3.26.82,5.39Z" transform="translate(-105.14 -124.13)" fill="#272726"/><path d="M136.91,435.31l-1.11.64a3.11,3.11,0,0,1-.5-1.24,2.18,2.18,0,0,1,.87-0.77Z" transform="translate(-105.14 -124.13)" fill="#272726"/></svg>