<svg xmlns="http://www.w3.org/2000/svg" viewBox="0 0 2558.42 1688.79"><title>logo</title><path d="M1159.15-2139.46l-0.4-47.63v-19.45q0-119.88,11.91-166.72,14.29-58,39.7-80.19,34.54-31,87.33-31,12.7,0,18.86,6a19.19,19.19,0,0,1,6.15,14.29,24,24,0,0,1-5,14.89q-5,6.55-12.5,6.95h-38.11q-16.67,0-29,21.44-11.91,21.44-17.47,52.4-10.33,58.75-9.92,97.25v4l-3.57,156.8q0,49.63,5.36,68.67t11.11,30.76a66.67,66.67,0,0,0,13.69,19.25q18.25,17.47,46.84,17.47,9.53,0,17.47-7.14a33.46,33.46,0,0,1,17.07,4.37q7.54,4.37,7.54,13.5,0,32.15-44.86,32.15a148.26,148.26,0,0,1-38.31-5.36q-20-5.36-30-11.71Q1159.14-1983.45,1159.15-2139.46Z" transform="translate(-652.69 2587.18)" fill="#1d1d1b"/><path d="M1416.77-2432.42l-3.18,202.84q14.68,4,44.46,4h29.37q2-3.57,2-26.2t-5.36-99.44q-5.36-76.81-5.36-115.71a19.38,19.38,0,0,1,7.15-15.28q7.15-6.15,13.5-6.15a36.86,36.86,0,0,1,10.32,1.19,91.68,91.68,0,0,1,8.73,3.18,71.89,71.89,0,0,0,7.54,2.78q0,105.6,7.74,308.63t7.74,209.79q0,6.75-8.53,13.3a30.55,30.55,0,0,1-19.05,6.55q-10.52,0-16.87-15.48t-8.53-45.85q-2.19-30.37-3-52.6-0.4-9.53,0-21.83,0-16.67.4-38.11,0.79-37.71.79-43.67v-3.17l1.19-23.42-4.76-7.54v-0.79a64,64,0,0,1-14.69,1.59l-52.4-7.54v93.28l4.76,133.77a36,36,0,0,1-6,20.44q-6,8.93-17.07,8.93-16.28,0-22.43-29.57t-6.15-80.78l2.38-123.85q0-38.5-1.19-42.47v-4q3.17-42.47,3.18-47.63l-5.56-183.39a24.2,24.2,0,0,1,6.75-16.87,21.32,21.32,0,0,1,16.28-7.34Q1416.77-2480.85,1416.77-2432.42Z" transform="translate(-652.69 2587.18)" fill="#1d1d1b"/><path d="M1773.24-2108.11l8.73,50q0,9.93,7.74,48.43t7.74,50.41v0.79q0,17.86-13.5,23-17.07,0-26.6-5.56t-9.53-21.44q0-34.54-11.91-100.43l-80.19-11.91a403.38,403.38,0,0,0-11.51,59.15q-4,32.15-7.54,46.84-7.14,30.17-26.6,30.17a28.69,28.69,0,0,1-17.66-6.15q-8.14-6.15-8.14-15.68l2-7.14q54.78-211.58,81.38-412,0.79-5.55,2.38-32.55,4-59.54,15.08-75.82h27.39a36.25,36.25,0,0,1,19.45,5.16q8.34,5.16,8.34,15.48,0,61.93,16.47,183.79T1773.24-2108.11Zm-42.47,16.28q-2.38-11.91-2.38-41.48t-3.37-73.44q-3.38-43.86-9.73-102t-8.73-84.35q-36.92,204.44-47.63,288.19Q1672.8-2095.79,1730.76-2091.83Z" transform="translate(-652.69 2587.18)" fill="#1d1d1b"/><path d="M1834.37-2191.47l0.79-31c0-2.64-.4-4-1.19-4v-14.69q0-127.81,14.69-181.81,12.3-45.64,23.82-56.37T1895.1-2490q94.47,0,130.2,95.27,20.64,54.78,20.64,135v6l1.59,92.09q0,233.81-108.37,233.81-44.86,0-68.67-49.62-22.63-47.64-27.79-93.68Q1834.37-2140.65,1834.37-2191.47Zm48-111.15-4,75q0,117.9,19.05,205.62,20.24,51.21,38.5,60.34,14.68,0,26.6-11.91t18.86-32a358.67,358.67,0,0,0,11.71-42.28,463.63,463.63,0,0,0,6.75-46.84q4-43.26,4-73.83t-5.36-93.68q-5.36-63.12-5.36-94.08v-14.29a86.16,86.16,0,0,0-19.45-53q-18.66-23.22-47.63-23.22-27.79,0-36.92,31.36-7.55,26.2-7.54,64.7Z" transform="translate(-652.69 2587.18)" fill="#1d1d1b"/><path d="M2101.12-1977.11l33.74,6q15.48,0,27-13.5t17.07-33.74q10.72-38.9,10.72-68.87a184.47,184.47,0,0,0-9.92-59.35,305.7,305.7,0,0,0-24.41-54.58q-14.5-25.2-28.78-51.41-34.14-61.92-34.14-121.47,0-36.52,12.31-64.7,23-52.4,61.13-52.4,14.29,0,27.19,9.13t12.9,19.85q0,18.66-19.85,18.66a34,34,0,0,1-17.07-4.76q-25.81,1.19-34.93,57.56a182.52,182.52,0,0,0-2,28.78q0,16.48,7.15,40.69a196.58,196.58,0,0,0,18.06,43.07q10.91,18.86,23.42,41.68t23.62,44.26q25.4,49.63,25,113.53a199.81,199.81,0,0,1-22.63,94.08,95,95,0,0,1-31.56,36.32q-20.45,14.09-46.64,14.49v2q-33.34-4.76-36.52-31.36Z" transform="translate(-652.69 2587.18)" fill="#1d1d1b"/><path d="M2351.21-1956.07l-1.59-62.32q0-.39,1.19-27.79-3.18-10.32-12.9-183.39t-10.52-211.58h-3.18q-65.9-1.19-65.9-24.21,0-7.54,8.73-12.5a34.46,34.46,0,0,1,17.07-5l110.35,7.54,13.1-.4q25.4,0,25.41,19.45,0,9.93-8.34,16.08A30.63,30.63,0,0,1,2406-2434l-37.31-5.56-1.59,8.34q0,77,13.5,230.63t13.5,231q0,9.53-8.73,16.87t-19.05,7.34Z" transform="translate(-652.69 2587.18)" fill="#1d1d1b"/><path d="M2510.78-2215.28l-0.79,88.12q0,107.58,15.48,169.5l-9.13,21.83h-22.63L2483-1947.73q0.79-36.52.79-82T2476.84-2224q-6.95-148.86-6.95-222.3,0-38.5,27-38.5,42.47,0,71.45,22.23t29,63.51v57.16q0,23.43-8.73,42.67t-20.25,40.49q-11.52,21.24-12.7,23.62,4.36,19.85,15.48,77.8,23.82,126.63,52.8,182.2,8.34,15.88,8.34,24.81a23.28,23.28,0,0,1-5,15.08,16.22,16.22,0,0,1-13.3,6.15q-17.07,0-32.75-39.1T2556-2054.91q-29-145.68-35.33-160.37h-9.92Zm3.18-239.37-2.78,11.51q0,33.34,1.59,96.26t1.59,91.5q19.05-9.92,30.76-51.8t11.71-64.11q0-22.23-1.19-32.75a126.74,126.74,0,0,0-5.16-23.22Q2542.53-2453.46,2514-2454.65Z" transform="translate(-652.69 2587.18)" fill="#1d1d1b"/><path d="M2679.09-2353.42l-4.37-68.67q0-57.55,34.14-57.56,21.83,0,59.54,10.12t37.71,26q0,16.67-23.82,25.41-37.72-12.7-61.53-15.48,1.19,17.47,1.19,34.93L2718.39-2282q0,0.8,2.38,12.7l29-1.19q39.3,0,39.3,22.23,0,8.74-7.15,15.28t-18.06,6.55a190.75,190.75,0,0,1-23.62-1.59h-20.64q2.38,31,2.38,61.53l-3.57,147.27q0,45.65,1.59,45.65l59.94-2q31,0,31,19.85,0,12.31-10.72,17.86a51.86,51.86,0,0,1-24.21,5.56h-68.67a29.49,29.49,0,0,1-19.45-7.34q-8.74-7.34-9.13-17.67v-21.44L2673.54-2116Z" transform="translate(-652.69 2587.18)" fill="#1d1d1b"/><path d="M2912.9-2426.86l-7.54,163.15v21.83l15.08-.4q39.3,0,39.3,21.44a20.57,20.57,0,0,1-8.73,17.27q-8.74,6.55-22.83,6.55a96.68,96.68,0,0,1-29.18-4.76v230.24q0,35.73-21,35.73-12.71,0-29-12.31,6.75-72.64,10.12-206.62t5.76-175.26v-19.85Q2868-2409,2868-2460.21a20.16,20.16,0,0,1,9.73-17.86,39.08,39.08,0,0,1,21.83-6.35q12.1,0,26,.79,14.29,0.8,34.54,4,46,6.75,46,28.18,0,23-41.28,23-16.28-7.94-42.47-7.94h-9.53v9.53Z" transform="translate(-652.69 2587.18)" fill="#1d1d1b"/><path d="M3104.63-2426.86l-7.54,163.15v21.83l15.08-.4q39.3,0,39.3,21.44a20.57,20.57,0,0,1-8.73,17.27q-8.74,6.55-22.83,6.55a96.68,96.68,0,0,1-29.18-4.76v230.24q0,35.73-21,35.73-12.71,0-29-12.31,6.75-72.64,10.12-206.62T3056.6-2330v-19.85q3.17-59.14,3.18-110.35a20.16,20.16,0,0,1,9.73-17.86,39.07,39.07,0,0,1,21.83-6.35q12.1,0,26,.79,14.29,0.8,34.54,4,46,6.75,46,28.18,0,23-41.28,23-16.28-7.94-42.47-7.94h-9.53v9.53Z" transform="translate(-652.69 2587.18)" fill="#1d1d1b"/><path d="M1227.82-1850.31l-7.54,163.15v21.83l15.08-.4q39.3,0,39.3,21.44a20.57,20.57,0,0,1-8.73,17.27q-8.74,6.55-22.83,6.55a96.68,96.68,0,0,1-29.18-4.76V-1395q0,35.73-21,35.73-12.71,0-29-12.31,6.75-72.64,10.12-206.62t5.76-175.26v-19.85q3.17-59.14,3.18-110.35a20.16,20.16,0,0,1,9.73-17.86,39.08,39.08,0,0,1,21.83-6.35q12.1,0,26,.79,14.29,0.8,34.54,4,46,6.75,46,28.18,0,23-41.28,23-16.28-7.94-42.47-7.94h-9.53v9.53Z" transform="translate(-652.69 2587.18)" fill="#1d1d1b"/><path d="M1407.64-1822.12l2.38,195.3q-4.76,11.12-4.76,27.79v16.28l-3.18,129.41q0,56,27.39,56l33.74-1.19q43.66,0,43.67,23.82,0,8.74-7.54,14.49a34.79,34.79,0,0,1-17.07,6.95q-29.77-9.53-72.64-9.53-13.1,7.54-25.21,7.54t-18.86-8.34a28.36,28.36,0,0,1-6.75-18.26q0-60.33,5.16-181.61t5.16-181.61v-6q-4.76-50.81-4.76-76.22,0-77,28.18-77a20.16,20.16,0,0,1,14.49,6,19.19,19.19,0,0,1,6.15,14.29Z" transform="translate(-652.69 2587.18)" fill="#1d1d1b"/><path d="M1551.74-1776.87l-4.37-68.67q0-57.55,34.14-57.56,21.83,0,59.54,10.12t37.71,26q0,16.67-23.82,25.41-37.72-12.7-61.53-15.48,1.19,17.47,1.19,34.93L1591-1705.42q0,0.8,2.38,12.7l29-1.19q39.3,0,39.3,22.23,0,8.74-7.15,15.28t-18.06,6.55a190.75,190.75,0,0,1-23.62-1.59h-20.64q2.38,31,2.38,61.53L1591-1442.63q0,45.65,1.59,45.65l59.94-2q31,0,31,19.85,0,12.31-10.72,17.86a51.86,51.86,0,0,1-24.21,5.56h-68.67a29.49,29.49,0,0,1-19.45-7.34q-8.74-7.34-9.13-17.66v-21.44l-5.16-137.35Z" transform="translate(-652.69 2587.18)" fill="#1d1d1b"/><path d="M1723.62-1695.49l4.76-151.64q0-37.71,29.77-59.94v5.16a11.37,11.37,0,0,1,6-2q19.05,0,47.63,65.7t51.6,144.29q23,78.6,45.85,158.58t28.38,93.88q16.27-170.29,16.28-412.44l-1.19-21.83q0-24.21,20.24-24.21,11.51,0,17.27,9.53a42.19,42.19,0,0,1,5.76,22.23v61.53q-0.8,95.67-8.53,255.44t-20.84,180.42q-22.24,6.74-30.76,6.75t-13.1-5.76q-4.57-5.75-7.34-17.67t-4.76-15.88l0.4-3.57q0-30.16-58.35-191.73t-84.55-222.3v409.26q0.79,1.59,3.18,5.56,5.15,8.73,5.16,16.27t-7.34,15.08a23.34,23.34,0,0,1-17.27,7.54q-26.6,0-26.6-49.62Z" transform="translate(-652.69 2587.18)" fill="#1d1d1b"/><path d="M2055.08-1400.55l33.74,6q15.48,0,27-13.5t17.07-33.74q10.72-38.9,10.72-68.87a184.46,184.46,0,0,0-9.92-59.34,305.67,305.67,0,0,0-24.41-54.58q-14.5-25.2-28.78-51.41-34.14-61.92-34.14-121.47,0-36.52,12.31-64.7,23-52.4,61.13-52.4,14.29,0,27.19,9.13t12.9,19.85q0,18.66-19.85,18.66a34,34,0,0,1-17.07-4.76q-25.81,1.19-34.93,57.56a182.52,182.52,0,0,0-2,28.78q0,16.48,7.15,40.69a196.59,196.59,0,0,0,18.06,43.07q10.91,18.86,23.42,41.68t23.62,44.26q25.4,49.63,25,113.53a199.81,199.81,0,0,1-22.63,94.08,95,95,0,0,1-31.56,36.32q-20.45,14.09-46.64,14.49v2q-33.34-4.76-36.52-31.36Z" transform="translate(-652.69 2587.18)" fill="#1d1d1b"/><path d="M2240.46-1832l-4.37-42.08v-4.37q0-17.06,5.36-27t27.39-9.92q22,0,43.07,11.51a87.47,87.47,0,0,1,33.34,31.76q24.21,39.7,24.21,90.51t-7.54,80.38a166.34,166.34,0,0,1-25.41,55q31.75,30.57,36.52,100.43,0.79,15.88,1,38.11a228.54,228.54,0,0,1-3.77,43.67,167.79,167.79,0,0,1-13.1,40.89,135.63,135.63,0,0,1-23,33.74q-29.77,31-79.79,31-17.07,0-21.83-15.08-3.18-11.51-3.57-27.79l7.94-173.07Zm34.54,391.8,0.79,4v36.52q27.39-6.34,41.08-32.35t13.7-48.43q0-22.42-.6-35.53a278.47,278.47,0,0,0-3.77-32.15,221.78,221.78,0,0,0-7.94-33.34q-11.91-34.93-36.92-40.09-3.57,52.4-3.57,123.06Zm5.16-350.12v121.07q42.87-1.19,42.87-102.81t-33.34-105.59Q2280.15-1857.05,2280.15-1790.37Z" transform="translate(-652.69 2587.18)" fill="#1d1d1b"/><path d="M2620.34-1728.84l0.79,13.89q0,360.83-104.8,360.83-40.49.39-59.94-32.95-20.24-34.14-24.61-67.88-6.75-52-7.74-119.29t-1-194.31l-3.57-116.31q7.54-17.06,17.27-17.07T2454-1887a68.94,68.94,0,0,1,7.54,31.56v221.11q0,29,5.76,86.14t5.76,86.14q0,59.54,51.6,59.54,58,0,58-437v-45.65l-0.4-13.5q0-9.53,4.37-14.29t15.28-4.76q10.91,0,16.47,3.57a18.34,18.34,0,0,1,7.54,9.53q3.17,9.93,3.57,26.2l-5.56,81.77Z" transform="translate(-652.69 2587.18)" fill="#1d1d1b"/><path d="M2718.39-1638.73l-0.79,88.12q0,107.58,15.48,169.5l-9.13,21.83h-22.63l-10.72-11.91q0.79-36.52.79-82t-6.95-194.31q-6.95-148.86-6.95-222.3,0-38.5,27-38.5,42.47,0,71.45,22.23t29,63.51v57.16q0,23.43-8.73,42.67T2776-1682.2q-11.52,21.24-12.7,23.62,4.36,19.85,15.48,77.8,23.82,126.63,52.8,182.2,8.34,15.88,8.34,24.81a23.28,23.28,0,0,1-5,15.08,16.21,16.21,0,0,1-13.3,6.15q-17.07,0-32.75-39.1t-25.21-86.74q-29-145.68-35.33-160.37h-9.92Zm3.18-239.37-2.78,11.51q0,33.34,1.59,96.26t1.59,91.5q19.05-9.92,30.76-51.8t11.71-64.11q0-22.23-1.19-32.75a126.74,126.74,0,0,0-5.16-23.22Q2750.14-1876.9,2721.57-1878.09Z" transform="translate(-652.69 2587.18)" fill="#1d1d1b"/><path d="M3069.3-1529.57l4,86.14q0,40.1-28,61.73t-65.3,21.63q-56.37,0-81.77-42.08-18.26-29.77-23-56.17t-6.75-40.69a383.83,383.83,0,0,1-2.78-38.5q-1.59-33.74-1.59-54.38v-34.93q0-114.71,6.75-145.09a569.07,569.07,0,0,1,15.48-56.57q8.73-26.2,21.44-40.49,30.56-34.93,70.66-34.93t40.09,20.64q0,9.53-7.94,15.68a28.41,28.41,0,0,1-17.86,6.15l-17.07-2q-28.19,0-42.47,55.57-20.64,79.4-20.64,191.73,0,76.62,5,105.39t10.92,48.23q5.55,19.85,13.5,31.76,18.65,28.19,48,28.18,39.3,0,39.3-129.41v-37.31q-6-3.17-19.05-3.18l-15.88.4q-28.19,0-28.18-18.66,0-11.51,8.14-17.47t19.65-6v0.4H3005q73,0,73,25Z" transform="translate(-652.69 2587.18)" fill="#1d1d1b"/><path d="M1135-1156.66l-1.42,73.37q0,30.74,5.86,44.06,6.75,15.63,17.23,20.25a33.37,33.37,0,0,0,13.77,3q7,0,10.75-3.2,5.5,0,5.51,3.91,0,2.84-4.88,6.31a43.1,43.1,0,0,1-9,5.06h-12.08a55.92,55.92,0,0,0-8.53-3.2,39.32,39.32,0,0,1-11.46-5.77q-5.24-3.82-9.86-12.61a67.83,67.83,0,0,1-6.57-20.52,262.9,262.9,0,0,1-3.2-43v-41.57q0-48.5,3.55-66.44,7.1-36.41,19.36-46a40.28,40.28,0,0,1,9.86-5.06,77.23,77.23,0,0,0,9.15-4h14.57a3.93,3.93,0,0,1,1,.18l1,0.27,1,0.27,0.89,0.27a7,7,0,0,1,.8.35,3.08,3.08,0,0,1,.71.44,5.11,5.11,0,0,1,1.6,3.73l-4.8,5.33h-15.28q-7.46,0-13,7a50.51,50.51,0,0,0-8.44,16.61,146.19,146.19,0,0,0-4.71,22.21,264.93,264.93,0,0,0-2.66,36.77Z" transform="translate(-652.69 2587.18)" fill="#1d1d1b"/><path d="M1263-1250.63l2-1.6a5.69,5.69,0,0,1,3.2-1.6q1.24,0,7.64,2.13,0,28.42,2.31,85t2.31,91.13q0,34.55,2.31,65.82l-2.31,4.09q-0.36-3.73-11.19-3.73-1.78-80.83-1.78-97.53l-0.89-1.42,1.24-3.2a87.94,87.94,0,0,0-1.24-13.5l-5.68-1.42a23,23,0,0,1-7.28,1.07l-23.27-3.73-3.73,1.42-1.07,45.83,1.07,1.6,2.13,60.75q0,9.42-6,9.42-8,0-8-21.85l0.71-66.62q0-33-1.07-35.53,1.77-3.55,1.78-24.16l-2.66-85.09a7.22,7.22,0,0,1,1.87-4.71,5.55,5.55,0,0,1,4.35-2.22q7.28,0,7.28,21.14l-1.42,88.82q0,4.26,29.13,4.26,6.93,0,10-2.58t3.11-14.3q0-11.72-2.4-45.21t-2.4-50.18v-2.31Zm-5.51,109.6,0.71,0.71h-0.71V-1141Z" transform="translate(-652.69 2587.18)" fill="#1d1d1b"/><path d="M1361.54-1063.93l-9.59.36a29.47,29.47,0,0,0-11.37-2.13q-6.22,0-6.75.36a1.84,1.84,0,0,0-.71,1.24,5.64,5.64,0,0,1-.36,1.24l-0.71,7.28a182.79,182.79,0,0,1-3.38,22.21q-5,25.4-10.48,25.4a7.86,7.86,0,0,1-4.8-2,5.47,5.47,0,0,1-2.49-4.26q4.62-13.68,9.59-41.39t6.22-34.55q1.24-6.84,4.62-27.62l4.44-27.36q1.07-6.57,5.77-28.42t5.68-28.6q1-6.75,2.22-18.3,3-28.42,4.8-31.62l5,0.36q4.44,0,6.57-2.13a7.59,7.59,0,0,1,4.44,1.51,4.68,4.68,0,0,1,2.13,4q0,17.41,4.44,67.33t7,64.57q2.57,14.66,6,28.78t3.38,21.58l-1.78,5q0,8.17,3,24.07t3,22.38q0,6.49-2.84,8.08-7.46,0-9.15-2.13t-1.69-6.84q0-4.71-.62-11.55t-1.24-10.92q-0.62-4.08-2.13-12.88t-1.87-11.28A66.43,66.43,0,0,0,1361.54-1063.93ZM1336-1081.87q0,3.73,8.7,6.22a109.19,109.19,0,0,0,29.49,3.73h3.73a52.84,52.84,0,0,1-2.31-16.34v-8.35q0-22.56-5.6-65.73t-6-64.31q-19,94-23.54,116.09T1336-1081.87Z" transform="translate(-652.69 2587.18)" fill="#1d1d1b"/><path d="M1504.09-1150.27l0.71,43.34q0,81.9-26.29,99.66a24.65,24.65,0,0,1-14.39,4.44q-42.63,0-42.63-133.94,0-51.69,7.11-89.71,5.33-27.71,16.17-27.71a7,7,0,0,1,4.71,2,18,18,0,0,0,6,3.29,74.66,74.66,0,0,0,10.48,2.58l9.5,1.78q7.28,1.25,14,14,15.28,25.94,15.28,78.52Zm-71.23,13.15,0.71,28.78a270.73,270.73,0,0,0,7.82,65.91,66.37,66.37,0,0,0,8.44,20.43q5.6,8.71,12.79,8.7a17.44,17.44,0,0,0,12.61-5.33q5.42-5.33,8.62-14.83a179.65,179.65,0,0,0,5.33-19.36,160,160,0,0,0,3-22.12q1.42-19.54,1.42-34.82l-4.09-86-1.42-2.84,0.71-1.78q0-15.81-8.88-27.53t-21.67-11.72H1443q-3,0-5.33,32.42t-3,36Z" transform="translate(-652.69 2587.18)" fill="#1d1d1b"/><path d="M1569.95-1241.57l-7.64-2.13a13.26,13.26,0,0,0-9.95,4.53,28.85,28.85,0,0,0-6.4,11.28q-4.44,13.15-4.44,20.61t0.35,10.66a66.91,66.91,0,0,0,1.33,7.46q1,4.26,1.33,6t2,7.37q1.69,5.6,1.87,6.31l2.66,6.57q3.55,6.4,9.24,16.08t8.53,14.66q2.84,5,6.57,13.06a81.62,81.62,0,0,1,5.33,14.66q4.44,16.88,4.44,30.29a171.87,171.87,0,0,1-1.07,21.49,85.47,85.47,0,0,1-4,16.61,64.71,64.71,0,0,1-7.19,14.92q-9.77,14.92-27.36,14.92l-1.78.89q-10.66-2-11.72-8.88l1.78-2.84,13.15,2.49a19,19,0,0,0,14.39-6.48,41.27,41.27,0,0,0,9.06-16.43,124,124,0,0,0,5.33-34.2,95.45,95.45,0,0,0-4.53-29.67,145,145,0,0,0-10.92-25.49l-12.79-23.09q-15.45-27.89-15.45-54.89a71.49,71.49,0,0,1,5-26.47q9.06-23.27,23.8-23.27,4.08,0,9,3.11t4.89,7Q1574.74-1241.57,1569.95-1241.57Zm2.49-1.42v0.36h0.35A0.31,0.31,0,0,0,1572.43-1243Z" transform="translate(-652.69 2587.18)" fill="#1d1d1b"/><path d="M1667.38-1237.84l-19.72-2.49-1.78,2.13,0.71,1.42q-0.71,1.42-.71,20.78t6,90.51q6,71.15,6,106.67a6.63,6.63,0,0,1-2.13,4.8,6.62,6.62,0,0,1-4.8,2.13l-4.09-3-0.71-26.47,0.71-12.79a24.41,24.41,0,0,0-1.42-8.7q0-30.91-4.35-90.06t-4.71-87.4q-28.6,0-30.55-6.93,1.6-4.08,6.93-4.08l49.38,3.38,6.57-.36q6.57,0,6.57,4.62a4.89,4.89,0,0,1-2.66,4.17A9.88,9.88,0,0,1,1667.38-1237.84Z" transform="translate(-652.69 2587.18)" fill="#1d1d1b"/><path d="M1702.86-1238.55q0-13.86,8-13.86,17.76,0,29.31,9t11.55,26.38v26.47q0,14-14.21,40.15-4.8,8.71-4.8,9.5t13.77,57.56q13.76,56.76,14.48,58.53t3.55,7.46q2.84,5.69,2.84,9.77t-4.09,4.09l-5.33-1.78q-8.53-9.59-18.65-71.06-9.77-59.33-16.7-59.33h-1.42q-8,0-8,5.15,0,19.9,2.31,66.17t3.91,51.78l-2.66,6h-5.33l-2.66-2.84Q1702.86-1167,1702.86-1238.55Zm10.3,5,1.42,88.11,0.71,0.71q6.93,0,12.44-7.19a50.62,50.62,0,0,0,8.35-17.5q5.86-21.32,5.86-32.33a143.39,143.39,0,0,0-.71-16.61,53.57,53.57,0,0,0-3-11.81q-4.8-12.79-20.78-12.79-2.13,0-3.2,3.38A20.33,20.33,0,0,0,1713.17-1233.58Z" transform="translate(-652.69 2587.18)" fill="#1d1d1b"/><path d="M1795.63-1012.59l0.36-9.24-1.24-1.42a43.1,43.1,0,0,0,2.66-14.92l-1.78-48,2.49-109.6-1.42-43.52q0-10.3,10.48-10.3,4.08,0,5.86,2.31,1.24,0.36,10.48,1.42,22.38,2.49,22.92,9.06,0,2.84-6.93,6.93-20.08-6.57-29.49-6.93l-1.78,2.13q0.35,5.15.35,15.63l-1.42,56.49q0,10.13,5.15,10.13l12.26-.71q13.86,0,14.21,6.57a11.7,11.7,0,0,1-1.87,6.57q-1.87,2.84-6.66,2.84t-7.11-2.84l-11.9-1.78h-1.6l-1.78,1.78v1.07q0.71,9.42.71,28.78l-0.71,51.69q0,36.24,5,40.15,3.2,2.66,11.72,2.66l13.5-.71q10.66,0,10.66,4.8,0,6.57-15.81,6.57h-30Q1796.16-1005,1795.63-1012.59Z" transform="translate(-652.69 2587.18)" fill="#1d1d1b"/><path d="M1889.91-1071.22l2.13,52q0,14.56-8.7,14.57l-7.28-5.51q3.37-35,3.38-73.9t2.49-87.84q2.49-48.94,2.49-73.28a5.61,5.61,0,0,1,3.2-5.15q3.2-1.77,10.13-1.78t23.54,2.67q16.61,2.66,16.61,7.82,0,6.22-13,6.22a30.9,30.9,0,0,0-14.92-3.55q-8.35,0-9.59.36a2.83,2.83,0,0,0-1.6.89,10.58,10.58,0,0,0-.89,2.58,19.54,19.54,0,0,1-1.42,3.82l-3.55,76.74v12.79q0,1.25,6.22,1.24,18.12-.35,18.12,5.51a5.84,5.84,0,0,1-2.84,5,10.22,10.22,0,0,1-5.86,2l-12.08-2.13q-6.57,0-6.57,17.76v41.21Zm-11.55-118.66v0.35a0.36,0.36,0,0,1-.44.36,0.36,0.36,0,0,1-.44-0.36c0-.24.18-0.35,0.53-0.35h0.36Z" transform="translate(-652.69 2587.18)" fill="#1d1d1b"/><path d="M1974.11-1071.22l2.13,52q0,14.56-8.7,14.57l-7.28-5.51q3.37-35,3.38-73.9t2.49-87.84q2.49-48.94,2.49-73.28a5.61,5.61,0,0,1,3.2-5.15q3.2-1.77,10.13-1.78t23.54,2.67q16.61,2.66,16.61,7.82,0,6.22-13,6.22a30.9,30.9,0,0,0-14.92-3.55q-8.35,0-9.59.36a2.83,2.83,0,0,0-1.6.89,10.58,10.58,0,0,0-.89,2.58,19.54,19.54,0,0,1-1.42,3.82l-3.55,76.74v12.79q0,1.25,6.22,1.24,18.12-.35,18.12,5.51a5.84,5.84,0,0,1-2.84,5,10.22,10.22,0,0,1-5.86,2l-12.08-2.13q-6.57,0-6.57,17.76v41.21Zm-11.55-118.66v0.35a0.36,0.36,0,0,1-.44.36,0.36,0.36,0,0,1-.44-0.36c0-.24.18-0.35,0.53-0.35h0.36Z" transform="translate(-652.69 2587.18)" fill="#1d1d1b"/><path d="M2109-1141q0,3.73-23.71,7.11t-32.6,3.38q-8.89,0-11.37-1.69a5.22,5.22,0,0,1-2.49-4.53q0-3.73,24-7.11t32.33-3.37Q2109-1147.25,2109-1141Z" transform="translate(-652.69 2587.18)" fill="#1d1d1b"/><path d="M2150-1071.22l2.13,52q0,14.56-8.7,14.57l-7.28-5.51q3.37-35,3.38-73.9t2.49-87.84q2.49-48.94,2.49-73.28a5.61,5.61,0,0,1,3.2-5.15q3.2-1.77,10.13-1.78t23.54,2.67q16.61,2.66,16.61,7.82,0,6.22-13,6.22a30.9,30.9,0,0,0-14.92-3.55q-8.35,0-9.59.36a2.83,2.83,0,0,0-1.6.89,10.58,10.58,0,0,0-.89,2.58,19.54,19.54,0,0,1-1.42,3.82l-3.55,76.74v12.79q0,1.25,6.22,1.24,18.12-.35,18.12,5.51a5.84,5.84,0,0,1-2.84,5,10.22,10.22,0,0,1-5.86,2l-12.08-2.13q-6.57,0-6.57,17.76v41.21Zm-11.55-118.66v0.35a0.36,0.36,0,0,1-.44.36,0.36,0.36,0,0,1-.44-0.36c0-.24.18-0.35,0.53-0.35h0.36Z" transform="translate(-652.69 2587.18)" fill="#1d1d1b"/><path d="M2237.57-1018.1l34.28,1.07h1.07a5,5,0,0,1,3.73,2,6.36,6.36,0,0,1,1.78,4.17q0,4.08-5.86,4.62-9.42-.36-30.2-0.36l0.71,0.36-13.5,1.24q-5.15,0-6-8.35a70.38,70.38,0,0,0,.71-12.08l2.13-194,1.78-24q0-2.48,2.66-2.49l6,1.42-0.36,28.78,0.36,79.23q-1.07,29.84-1.07,30.55l0.71,30.91-1.07,3,0.36-.35-0.36,2.84a11.41,11.41,0,0,0,1.07,5.15l-1.07,34.82v2.31a46,46,0,0,0,.36,7.37A1.77,1.77,0,0,0,2237.57-1018.1Z" transform="translate(-652.69 2587.18)" fill="#1d1d1b"/><path d="M2306.22-1012.59l0.36-9.24-1.24-1.42a43.1,43.1,0,0,0,2.66-14.92l-1.78-48,2.49-109.6-1.42-43.52q0-10.3,10.48-10.3,4.08,0,5.86,2.31,1.24,0.36,10.48,1.42,22.38,2.49,22.92,9.06,0,2.84-6.93,6.93-20.08-6.57-29.49-6.93l-1.78,2.13q0.35,5.15.35,15.63l-1.42,56.49q0,10.13,5.15,10.13l12.26-.71q13.86,0,14.21,6.57a11.7,11.7,0,0,1-1.87,6.57q-1.87,2.84-6.66,2.84t-7.11-2.84l-11.9-1.78h-1.6l-1.78,1.78v1.07q0.71,9.42.71,28.78l-0.71,51.69q0,36.24,5,40.15,3.2,2.66,11.72,2.66l13.5-.71q10.66,0,10.66,4.8,0,6.57-15.81,6.57h-30Q2306.75-1005,2306.22-1012.59Z" transform="translate(-652.69 2587.18)" fill="#1d1d1b"/><path d="M2488.79-1231.27l-0.71-9.06q0-7.64,5.15-7.64a6.68,6.68,0,0,1,5.77,3.38,12.73,12.73,0,0,1,2.22,7.11v24.34l-2,3q0,28.42-3.91,110t-7.64,89.27q-0.89.18-5.24,1.33a28.33,28.33,0,0,1-6.13,1.15q-1.78,0-3.2-2.4a20.47,20.47,0,0,1-2.22-6.31,20.65,20.65,0,0,0-1.51-5.15l0.35-1.07q-2.31-15.1-9.5-34.55T2451-1084q-1.25-1.6-9.77-27.18-32.69-101.43-41.21-109.6a104.27,104.27,0,0,0-2.84,25.58l0.71,28.6-0.71,17.59q0,4.09,1.42,25.4h-1.07q0,60.58,2.49,67V-1024a12.8,12.8,0,0,1,1.42,6.39q0,8.53-6.75,8.53-7.64,0-7.64-19.54l1.42-23.8L2386.11-1157l2.31-64.48v-6.4a48.26,48.26,0,0,1,.27-6.39q0.27-1.6.53-3.82a13.06,13.06,0,0,1,.8-3.46q0.53-1.24,1.24-2.84a14.11,14.11,0,0,1,3.73-5.15l1.07,1.24,3.55-.89a7.21,7.21,0,0,1,5,5.68,12.72,12.72,0,0,0,.44,2c0.29,1.13.44,1.75,0.44,1.87q6.22,25.94,26.11,72.3t24.16,59.6q4.26,13.23,7.64,28,7.46,32.69,16.34,47.79l0.71-1.07Q2488.79-1112.43,2488.79-1231.27Zm-7.64,221.87a0.31,0.31,0,0,1,.36.36Z" transform="translate(-652.69 2587.18)" fill="#1d1d1b"/><path d="M2567.75-1241.57l-7.64-2.13a13.26,13.26,0,0,0-9.95,4.53,28.85,28.85,0,0,0-6.4,11.28q-4.44,13.15-4.44,20.61t0.35,10.66a66.91,66.91,0,0,0,1.33,7.46q1,4.26,1.33,6t2,7.37q1.69,5.6,1.87,6.31l2.66,6.57q3.55,6.4,9.24,16.08t8.53,14.66q2.84,5,6.57,13.06a81.62,81.62,0,0,1,5.33,14.66q4.44,16.88,4.44,30.29a171.87,171.87,0,0,1-1.07,21.49,85.47,85.47,0,0,1-4,16.61,64.71,64.71,0,0,1-7.19,14.92q-9.77,14.92-27.36,14.92l-1.78.89q-10.66-2-11.72-8.88l1.78-2.84,13.15,2.49a19,19,0,0,0,14.39-6.48,41.27,41.27,0,0,0,9.06-16.43,124,124,0,0,0,5.33-34.2,95.45,95.45,0,0,0-4.53-29.67,145,145,0,0,0-10.92-25.49l-12.79-23.09q-15.45-27.89-15.45-54.89a71.49,71.49,0,0,1,5-26.47q9.06-23.27,23.8-23.27,4.08,0,9,3.11t4.89,7Q2572.55-1241.57,2567.75-1241.57Zm2.49-1.42v0.36h0.35A0.31,0.31,0,0,0,2570.24-1243Z" transform="translate(-652.69 2587.18)" fill="#1d1d1b"/><path d="M2614.25-1245.84q0-9.41,7.64-9.42,5,0,18.74,4.26t13.94,7.64a2.7,2.7,0,0,0-.36,1.07,66,66,0,0,1,9.06,21.41q2.31,10.75,2.31,32.33t-5.86,37.57h0.36a60.9,60.9,0,0,1-5.6,9.5q-4.18,6.13-5.06,7.73,7.1,5.51,11.28,15.72a72.42,72.42,0,0,1,5.15,18.21q1,8,1.51,19.19l0.36,9.42v5.15q0,34.82-21.67,51.52-11.55,8.88-27.89,8.88a6.27,6.27,0,0,1-5.06-2.22,9.18,9.18,0,0,1-2-5.6q-0.18-3.37-.18-11.19l3.73-76.74-0.71-32.33,2.13-87q0-13.86-.36-21.14l-1.42-1.78v-2.13Zm9.06,209.44,0.36,16.52q13.5,0,23.09-12.7t9.59-26.73v-0.53q0.17-3.2.18-6.22t-0.27-10.39a126.68,126.68,0,0,0-1.15-13.5,97.19,97.19,0,0,0-3.11-13.59,57.55,57.55,0,0,0-5.24-12.61q-7.46-12.26-20.61-12.26-1.78,27.18-1.78,48.05t1.07,26.56Q2623.31-1049.9,2623.31-1036.4Zm2.13-139.27-0.36,25.4v4.44l1.42,4.8h2.66q24,0,24-48.5,0-6.57-1.07-22.56l-0.71-.71q-2.31-30.2-18.3-30.2-8,0-8,47.79Z" transform="translate(-652.69 2587.18)" fill="#1d1d1b"/><path d="M2770.47-1173.18l0.35,7.28q-0.71,9.24-1,24.87t-0.53,29.67q-0.27,14-1,30.38a248.7,248.7,0,0,1-2.84,29.31q-5,30.91-16.17,41.21-12.08,11.37-28.25,2.31a39.78,39.78,0,0,1-11.64-9.77q-4.71-5.86-7.55-37.75t-3.37-67.24q-1.6-106.23-3.37-121.15l2.31-5.15q8.35,1.06,8.35,20.07l1.07,96.46,3.91,77.1q0,41.39,27.36,41.39,16.87,0,21.32-76.21,0.35-5.15,1.69-49.21t1.33-106.23l-0.71-6.57q0-4.08,5.24-4.09t6.22,2.4q1,2.4,1,21.5t-2.31,28.16a5.53,5.53,0,0,1,.36,2.31Z" transform="translate(-652.69 2587.18)" fill="#1d1d1b"/><path d="M2804-1238.55q0-13.86,8-13.86,17.76,0,29.31,9t11.55,26.38v26.47q0,14-14.21,40.15-4.8,8.71-4.8,9.5t13.77,57.56q13.76,56.76,14.48,58.53t3.55,7.46q2.84,5.69,2.84,9.77t-4.09,4.09l-5.33-1.78q-8.53-9.59-18.65-71.06-9.77-59.33-16.7-59.33h-1.42q-8,0-8,5.15,0,19.9,2.31,66.17t3.91,51.78l-2.66,6h-5.33l-2.66-2.84Q2804-1167,2804-1238.55Zm10.3,5,1.42,88.11,0.71,0.71q6.93,0,12.44-7.19a50.62,50.62,0,0,0,8.35-17.5q5.86-21.32,5.86-32.33a143.39,143.39,0,0,0-.71-16.61,53.57,53.57,0,0,0-3-11.81q-4.8-12.79-20.78-12.79-2.13,0-3.2,3.38A20.33,20.33,0,0,0,2814.31-1233.58Z" transform="translate(-652.69 2587.18)" fill="#1d1d1b"/><path d="M2970.61-1081.87l1.42,55.78q-18.83,18.83-37.13,18.83-24.16,0-31.71-9.95t-11.9-46.19q-4.35-36.24-4.35-51.6t1.78-33.84q1.77-18.47,2.84-35.26a174.53,174.53,0,0,1,3.73-28.16q8.7-38.37,41.21-38.37,11.19,0,11.19,5.15a4.55,4.55,0,0,1-2.4,4,9.07,9.07,0,0,1-4.89,1.51l-6.93-.71q-12.26,0-19.19,15.63-7.46,17.41-9.33,32.15t-2.75,23.45q-0.89,8.71-1.24,19.9-0.53,16.88-.53,31.44a200.58,200.58,0,0,0,1.07,23.27q2.84,4.44,3.73,14.48t1.51,20.16a127.71,127.71,0,0,0,2.84,20.07,28.86,28.86,0,0,0,9.5,16.17q7.28,6.22,19.9,6.22,21.85,0,21.85-58.09v-26.65q-3.73-3.73-12.79-3.73l-6.93.36q-8.71,0-8.7-4.26,0-6.22,8.7-6.22,33.57,0,33.57,7.28Z" transform="translate(-652.69 2587.18)" fill="#1d1d1b"/><path d="M3004.92-1011.08a9.11,9.11,0,0,1-2.4-6.13,9.42,9.42,0,0,1,2.93-6.48,8.62,8.62,0,0,1,6.31-3.11,8.1,8.1,0,0,1,6.13,3.11,9.53,9.53,0,0,1,2.75,6.31q0,9.06-10.13,9.06A7.23,7.23,0,0,1,3004.92-1011.08Z" transform="translate(-652.69 2587.18)" fill="#1d1d1b"/><path d="M3126.69-1137.12q0,14.39,1.78,17.59-2.31,11.9-4.17,32.15t-4.44,30.91a83.3,83.3,0,0,1-6.48,18.3q-9.59,18.12-31.8,30.2h-25.22q-3.2,0-3.2-9.77-1.43-28.25-1.42-63.24l0.71-86q0-37.84-1.42-68.39a7.73,7.73,0,0,1-3-6.22,8.24,8.24,0,0,1,3-6.39q3-2.66,5.51-2.67t5.6,2.93a23.6,23.6,0,0,0,4.71,3.73q1.6,0.8,7.64,1.78a36.24,36.24,0,0,1,10,2.93q4,2,13.06,10.57a155,155,0,0,0,12.26,10.92l-0.36.71q0.35,2.31,5.42,9.33t6.31,10.21q5.86,15.81,5.86,43.34ZM3116-1114.92l-0.36-13.14-1.78-36.59q-0.71-20.6-12.61-43.7a53.8,53.8,0,0,0-14.66-18.3q-9.15-7.28-19.63-7.28-4.09,0-4.09,72.74t4.09,130.3l-0.36,6.93,1.42,0.71,1.07,4.8h11.19a25.06,25.06,0,0,1,5.42-5.51q3.29-2.49,4.53-3.55Q3116-1050.79,3116-1114.92Z" transform="translate(-652.69 2587.18)" fill="#1d1d1b"/><path d="M3158-1012.59l0.36-9.24-1.24-1.42a43.1,43.1,0,0,0,2.66-14.92l-1.78-48,2.49-109.6-1.42-43.52q0-10.3,10.48-10.3,4.08,0,5.86,2.31,1.24,0.36,10.48,1.42,22.38,2.49,22.92,9.06,0,2.84-6.93,6.93-20.08-6.57-29.49-6.93l-1.78,2.13q0.35,5.15.35,15.63l-1.42,56.49q0,10.13,5.15,10.13l12.26-.71q13.86,0,14.21,6.57a11.7,11.7,0,0,1-1.87,6.57q-1.86,2.84-6.66,2.84t-7.11-2.84l-11.9-1.78H3172l-1.78,1.78v1.07q0.71,9.42.71,28.78l-0.71,51.69q0,36.24,5,40.15,3.2,2.66,11.72,2.66l13.5-.71q10.66,0,10.66,4.8,0,6.57-15.81,6.57h-30Q3158.53-1005,3158-1012.59Z" transform="translate(-652.69 2587.18)" fill="#1d1d1b"/><path d="M882.34-1639.6l10.2-25.24,5.7,8.2c1.11,6,.23,13.91,3.75,17.72,6.71,7.26,53.47,2.61,60.41-4.78a10.07,10.07,0,0,0,2.11-6.32c0.2-17.77,1.33-35.64-.22-53.27-1-11.27-7-2.87-10.84-.57l12.07-42.49,2-3.28-1.68,3.69c-1.2-5.55-1.77-11.35-3.84-16.55-1.3-3.26-4.86-5.61-7.4-8.37-4.05-5.34-7.82-14.1-13.92-1.76-3.42,6.92-6.28,14.13-9.39,21.2L903.3-1716l-2.84-3.27c0-2.39-.39-4.9.19-7.14,2.18-8.42,15.93-13.85,6.15-25.38s-16.16-26.73-36.07-23.21c-13,2.31-26.35,3-39.43,5.27-20.94,3.64-43.8-3.35-65.74-6.61-2.09-.31-2.87-6.46-5.16-9.11-4.09-4.73-8.25-10-13.54-12.9-4.3-2.38-10.3-1.7-15.54-2.38l13.46-5.89c0.73-.32,2-0.48,2.11-0.93,0.45-2,1-5.76.72-5.85-17.61-5.09,13.65-26.56-11.13-31-17.35-3.09-20-15.71-6-27.27s19.12-22.57,11.37-39.76c-2.31-5.11.41-12.48,0.77-18.81,1.17-20.21,3-40.36-4.89-60-1.85-4.63-2.4-13.25.32-15.64,13.91-12.24,8.65-28.75,11.58-43.35l1.92-1.45c1.43,4.41,3.83,8.76,4.07,13.24,0.44,8.23,3.25,10.6,12,10.47,42.05-.66,84.18-1.82,126.16.07,36.92,1.66,36.24,3.33,37-34.3,1-50.78,3.12-101.53,4.68-152.3,1-34-.69-37-34.45-42.64a218.14,218.14,0,0,0-48.57-2.48c-26.48,1.55-52.79,5.9-79.26,7.69-15.79,1.07-17.8,9.52-17.13,22.53,0.79,15.42.4,30.92-.13,46.36-0.17,5-2.41,9.91-3.71,14.86-0.87-4.52-2.13-9-2.52-13.58-0.55-6.47-.3-13-0.67-19.5-1.64-28.61-1.69-28.55-29.8-34.82-8.34-1.86-13.64-5.05-15-15.66-2.28-18.18-7.78-35.88,10.75-49.45,1.24-.91-10.66-7.57.9-10.89,6.68-1.92,13.17-4.51,19.75-6.8-5.95-2.72-12.44-4.68-17.66-8.43-3.47-2.5-7.83-8.13-7.12-11.34,3.61-16.36-7-14.36-16.69-14.41-13.83-.08-27.65-0.41-41.48-0.64V-2426c7.41-.37,14.83-1.22,22.22-1,14.24,0.42,28.49,2.23,42.67,1.67,3.39-.13,9.61-7.68,9.16-11.13-1.26-9.73-6.42-18.92-8-28.65-2.09-13.11-7.87-34-2.12-38.31,13.39-10.06,13.88-21,15.23-34.38,0.54-5.34,6-10.19,9.23-15.26,2.24,5.24,5.57,10.28,6.51,15.74,2.53,14.71,8.15,19.66,22.6,17.9,18.45-2.24,36.83-5.81,55.34-6.55,17.33-.69,22.43-9.22,22-24.71-0.33-12.17.34-24.36,0.56-36.54h9.77c0.08,14.58.93,29.2,0,43.72s4.36,20,19.22,20.53c27.92,1,54.33,8.77,77.64,24.79,17,11.67,17.45,17.28-.65,26.67-16.6,8.61-10.94,21.22-9.64,33.44,0.14,1.36,5.4,1.87,8,3.34,7.92,4.55,15.68,9.36,23.5,14.08-3.14,0-6.3-.21-9.43,0-2.57.13-5.12,0.65-7.68,1,2.78,0.82,5.64,2.48,8.32,2.23,2.88-.27,5.59-2.33,8.37-3.61,8.95,5.17,15.42,10.5,10.93,23.15-2,5.65,2.73,13.37,2.74,20.15,0,5.06-2.65,10.13-4.12,15.19-2.32-1.11-4.75-3.34-6.93-3.12-5.92.59-11.75,2.22-17.61,3.44l5.4-6.84-3.3-1-1.64,8.23c-1.89,1.46-5.6,3.29-5.4,4.33,2.49,12.49,5.1,25,8.74,37.18,1.16,3.89,5.44,6.86,8.29,10.25,2.25-4.15,5.68-8.08,6.54-12.5,2.63-13.4,4.26-27,6.29-40.52,0.18,36.66,1.43,73.19,8.82,109.32,0.6,2.93-4.23,8.26-7.78,10.48a99.58,99.58,0,0,1-21.7,10.19c-23.31,7.58-23.21,7.34-23.3,32.83-0.22,57.71-2.14,115.47-.21,173.11,0.77,23.05,3.91,45.88.29,68.95-1.52,9.68,2.35,13.84,12.28,10.09,4.56-1.72,9.2-5.09,13.63-4.81,5.72,0.35,11.25,3.6,16.87,5.6-2.29,5.4-3.48,11.76-7.17,15.92-3.55,4-9.85,5.47-14.61,8.55-6.53,4.23-12.76,8.94-19.12,13.45,7.27,6.85,13.47,15.81,22,20.13,19.47,9.84,20.58,14,3.45,29-9,7.87-8.94,31.8.41,39.29,0.54,0.43,3.79-3.37,6.14-4.19,4.84-1.68,9.92-2.68,14.9-4,0,4.82.6,9.74-.17,14.44s-3.72,8.82-4.35,13.4c-2.14,15.52-3.75,31.11-5.42,46.68-1.69,15.74-4.39,31.49-4.58,47.26-0.68,58.56-.63,117.13-0.46,175.7a46.94,46.94,0,0,0,4.22,18.3c28.76,64.82,30.71,132,17.88,200.42-2.08,11.09-3.77,22.46-7.67,32.93-2.76,7.4.59,21.25-15.28,19.46-0.79-.09-2.7,7.88-3.74,12.18-6.47,26.66-11.7,53.7-19.8,79.85-3.26,10.52-12.8,19.08-19.37,28.62-1.72,2.49-4.31,5.3-4.28,7.94,0.32,31.77-21.22,55-32.4,82.11-18.76,45.57-39.82,90.19-59.78,135.26-1.62,3.65-1.87,7.92-3.56,11.53-0.92,2-3.52,3.16-5.37,4.7-1.25-1.92-3-3.68-3.66-5.79-3.84-13.19-6.56-26.77-11.25-39.64-17.24-47.24-34.56-94.46-52.92-141.27-15.73-40.11-32.77-79.72-49.52-119.43-9.64-22.84-23.5-44.58-29.13-68.31-15.44-65-25.85-130.93-.3-196.32,5.8-14.84,12.43-29.38,19.23-43.8,5.65-12,11.6-23.15,1.25-36.15-2.71-3.4-1.14-10.55-.83-15.93,0.33-5.61,1.71-11.15,2.28-16.75,1.3-12.73,1.9-25.56,3.71-38.22,1.88-13.16,21.25-11.25,23.26-26.6,0.61-4.62,14-5.62,16.19,4,2.92,12.85,8.75,12.82,19.22,9,6.59-2.39,14.64-.43,21.59-2.2a32.19,32.19,0,0,0,14.36-8.53c11-11.35,14.74-10.88,21.38,3.65,1,2.18,3.92,3.48,6,5.18,2-2.92,4.66-5.61,5.91-8.83,1.41-3.63,1.56-7.75,2.26-11.65,1.18,4,2.83,7.83,3.45,11.87,2.33,15.38,15.64,11.06,20.16,7,8.52-7.68,16-3.12,24-3l1.67,3.8,2.09-1.66Zm87.83-659.08-4-3.95-1.79,2.28,6.23,1.2a38.81,38.81,0,0,0,3.12,2.78c0.27,0.2,1-.24,1.52-0.39ZM847.89-1068.18l2.35-2.69-1.86,3.18-5.6.11c-3.48-28,24.49-42.51,29.08-67.29,1.14-6.16,8.21-11.1,9.77-17.31,13.29-52.79,25.87-105.76,39-158.6,0.72-2.92,4.28-6.79,6.91-7.12,2.86-.36,6.58,2.43,9.14,4.73,1.53,1.38,1.35,4.53,2.29,6.73,1.72,4.05,3.69,8,5.56,12,1.28-4.62,3.55-9.2,3.69-13.85,0.75-25.92.83-51.87,1.54-77.79,0.12-4.47,2.16-8.88,3.32-13.32,3.74,2.83,7.9,5.25,11.08,8.6,2.72,2.87,4.31,6.8,6.4,10.26a18.86,18.86,0,0,0-1.76,1.62,8.42,8.42,0,0,0-.86,1.56l2.24-3.56c2.59-21.14,10.16-43.29,6.13-63.09-3-14.82-9.57-28.74-9.14-45.12,0.22-8.2-5.64-22.51-11.19-23.84a215.21,215.21,0,0,0-58.25-5.72c-52.53,2.17-104.9,4.7-157.18-4-6.45-1.08-18,2.14-20.25,6.77-9.37,18.89-23.06,36.75-19.37,60.26,1.62,10.31.91,21,1.09,31.5a65.48,65.48,0,0,1-.85,8.18c1.84-2.39,3.39-5.11,5.6-7.08,2.7-2.4,6-4.17,9-6.21l0.79,9.68c-11.83,22.68.42,43.87,4.18,65.56,0.3,1.73,2,3.23,3,4.84,0.45-2.35,1-4.68,1.3-7,0.36-3.2.48-6.43,0.7-9.64,10.28,33.69,20.94,67.28,30.6,101.15,2.81,9.86,2.79,20.54,4.07,30.84l-2,6.63,1.6-7c5.43,9.47,16.85,17.95,5,30.26-0.34-.61-0.65-1.26-1-1.84s-0.88-1.11-1.32-1.66l2.73,3.12c0,1.58-.48,4.39,0,4.56,16.27,5.84,15.56,23.09,23.23,34.64,0.9,1.36-.45,4.21-0.76,6.37-2.12-.55-4.85-0.47-6.23-1.8-2.75-2.64-4.76-6.06-7.08-9.16l-2.28-8.12c-0.28.61-.95,1.41-0.76,1.78,1,2,2.26,4,3.43,6,9.05,39.49,20.56,77.86,49.66,108.15l-0.45-.38,12.06,18.08c0.43-5.62.31-11.36,1.51-16.81,0.57-2.61,3.64-4.67,5.57-7l3.49,4.36ZM702.48-2358.72c13.09-2.57,27.33-5.13,41.38-8.49,1.47-.35,1.8-5.49,2.66-8.41-13.1-.58-32.85-6.7-37.92-0.61-10.75,12.92-21.75,6.44-32.5,8.42-3.06.57-6.06,1.53-9.08,2.32,2.55,1.25,5,3.23,7.66,3.63C683.35-2360.57,692.11-2359.85,702.48-2358.72Zm36.23,117.95c3.1-2.93,7.57-7,11.89-11.27a65.81,65.81,0,0,0,4.52-5.46c-5.22.22-10.45,0.37-15.67,0.69a32.46,32.46,0,0,0-7.13,1c-5.89,1.72-11.69,3.73-17.53,5.62l17.74,7Zm-44.24-164.9c-14.47.17-20.56,7.44-15.67,17.53,1.39,2.86,7.52,5,11.28,4.73,4.26-.3,8.32-3.66,12.46-5.68-3.67-1-7.46-1.77-11-3.21-2.56-1.05-4.73-3-7.07-4.6,2.36-1.63,4.55-3.65,7.13-4.78,2.77-1.21,5.9-1.57,8.88-2.31Zm267.39,151.14c-8.85,1.17-20-3-16.42,10.42,0.52,1.94,12.38,2,18.62.87,3.51-.64,6.25-5.49,9.34-8.45ZM671.54-2401.28l-3.41-11.91c-1.67,5.52-3.43,11-4.95,16.59a8.11,8.11,0,0,0,.07,4.69c1.36,3.6,3.13,7,4.73,10.55,1.19-3.49,2.52-6.93,3.5-10.48C671.88-2393.31,671.54-2395,671.54-2401.28Zm284.85,73-4.88-14.45c-1.93,4.58-5.25,9.11-5.4,13.74-0.14,4.39,3,8.89,4.76,13.34Zm-21-23.87,10.21-12c-1.75-.79-4.53-2.68-5.09-2.17a53.14,53.14,0,0,0-7.79,9.25C932.31-2356.58,934-2354.6,935.36-2352.2Zm-112.75,72.91,14.74-2.26c-4.1-.83-8.19-2.25-12.31-2.35-4.67-.11-9.36.95-14,1.5Zm-0.1-146.33,11-2.47c-2.13-.68-4.25-1.91-6.39-1.94a115.37,115.37,0,0,0-11.86,1Zm99.82,667.83c2.31-3.76,4.58-5.91,4.73-8.21,0.1-1.53-2.72-4.48-4.39-4.6-2.06-.15-4.29,2-6.45,3.13ZM691.09-2411.3l9.45-3.29c-3.09-.44-6.19-1.31-9.26-1.21s-6,1.17-9,1.82Zm288,140.17c-5.83-2.17-9.73-3.88-13.81-4.89-0.64-.16-2.06,2.8-3.12,4.32,3.29,1.93,6.42,4.29,10,5.55C973.19-2265.77,975.35-2268.37,979.07-2271.13ZM905-2020.46l-6.06,4.49c1.36,0.56,2.88,1.83,4,1.55a70.16,70.16,0,0,0,8.76-3.26ZM733.61-2273.53c-3.28-2.29-5-4.32-7-4.58-1.14-.15-2.66,2.55-4,4,1.7,1.19,3.29,3,5.15,3.37C729.14-2270.52,730.89-2272.17,733.61-2273.53Zm95.92-213.4,4.61-4.94c-2.12-.63-4.32-1.94-6.33-1.69-1.58.2-2.92,2.31-4.37,3.57Zm99.35,181.66c-1.18-2-1.91-4.21-2.64-4.21a49.45,49.45,0,0,0-8.11,1.19c0.59,1,1.08,2.8,1.78,2.88A78.33,78.33,0,0,0,928.88-2305.27Zm30.29,508.37a34.36,34.36,0,0,0-5.42-2.52c-0.25-.07-2.07,3.06-1.73,3.44,1.27,1.44,3.14,2.36,4.78,3.47Zm12.65-490.21a44,44,0,0,0-6.26-3.61c-1-.37-2.39.49-3.61,0.8a57.72,57.72,0,0,0,6.43,4.55C969-2285.06,970.41-2286.36,971.82-2287.11ZM760.68-1903.73l-4.95,5.84c1.09,0.74,2.71,2.37,3.19,2.09a74,74,0,0,0,7.17-5.36ZM876.3-1530.58l-1.36-4.37c-1.4.54-3.92,1-4,1.63-0.13,1.58.88,3.25,1.43,4.89Zm-20.94-753-3.92,1.66c1.29,0.55,2.59,1.52,3.88,1.52s2.6-1,3.91-1.51Zm108.76-110.26c0.72,1.34,1.2,3,2.27,3.85,0.48,0.4,2.16-.64,3.3-1-0.48-1.35-.6-3.36-1.54-3.87S965.52-2394.28,964.11-2393.86ZM729-2394.3a26.16,26.16,0,0,0-4.25-.79c-0.55,0-1.13.87-1.7,1.35,0.86,0.86,2.16,2.59,2.52,2.42A15.7,15.7,0,0,0,729-2394.3Zm194.48,381c0.82,1.25,1.38,2.94,2.53,3.59,0.84,0.47,2.46-.44,3.73-0.74-0.61-1.26-.94-3.25-1.89-3.6C926.68-2014.5,925-2013.62,923.51-2013.3ZM752-1243.53l1.44,0.16-0.55-2Zm225.25-32.73,0.89-1.66-1.26-.25Zm-183-254.27-2,.89,2,0.74ZM964-1595.48l-1-1.93c-0.47.54-1.44,1.27-1.32,1.59a9.68,9.68,0,0,0,1.71,2.31Zm-153.86-203.3-2.08-.66-0.22,2.63a7.86,7.86,0,0,0,2.14-.5C810.22-1797.45,810.1-1798.27,810.14-1798.78ZM758-1813.05c-0.53.48-1.55,1-1.49,1.42a22.39,22.39,0,0,0,1.25,3.79c0.52-.49,1.52-1,1.46-1.45A21.06,21.06,0,0,0,758-1813.05Zm98.13-204.52L858-2017l-1.22-2Zm24.76-254.07a7.18,7.18,0,0,0,2,.52c0.25,0,.48-0.85.72-1.32a7.22,7.22,0,0,0-2-.52C881.37-2272.95,881.15-2272.1,880.91-2271.64ZM731.34-2407.59l1.78-1c-0.5-.45-1.21-1.38-1.45-1.27a10.77,10.77,0,0,0-2.21,1.71Zm-3.63-10.25c-0.16-.56-0.15-1.42-0.5-1.61a7.14,7.14,0,0,0-2.28-.38l0.6,2.78Zm18.5-4.46,1.92-1.13c-0.55-.48-1.33-1.47-1.61-1.35a11,11,0,0,0-2.35,1.86ZM939-2486.58c-0.4-.44-0.78-1.25-1.28-1.33a4.66,4.66,0,0,0-2,.67,4.37,4.37,0,0,0,1.54,1.3A3.63,3.63,0,0,0,939-2486.58Z" transform="translate(-652.69 2587.18)" fill="#1d1d1b"/><path d="M715.84-1815.33c0.85,25,.85,25,28.31,33.91,2.26,0.73,4.48,1.6,6.71,2.41a76.37,76.37,0,0,1-7.34,3.65c-2.79,1.05-5.74,1.65-8.63,2.44,2.43,0.13,4.85.27,7.28,0.39,4.06,0.19,8.13.23,12.17,0.61a57.21,57.21,0,0,1,7,1.53c-1.83,1.83-4.24,3.36-5.4,5.55-3.44,6.51-8.66,13.14-9.1,20-1.38,21.87-.8,43.86-1.25,65.8a91.22,91.22,0,0,1-2.08,16.81c-0.42,2-2.81,3.53-4.31,5.28-1.28-2.3-3.75-4.64-3.66-6.89,1.09-27.55,2.55-55.08,3.94-82.62,0.55-10.8,2.47-21.5-15.17-19.59-6.17.67-13.53-4.47-19.42-8.36-3.17-2.09-5.52-6.93-6.24-10.89-1.39-7.73-.64-15.86-2.07-23.58-3.93-21.14-4.19-21.1,19-20.25,0.19,0,.27,2.88.39,4.42l0.34-.58v10.43Z" transform="translate(-652.69 2587.18)" fill="#1d1d1b"/><path d="M951.83-1703.14c1,4,1.91,8,3,12,2.05,7.18.84,15.36-7.55,12.84-16.85-5.06-24.49,6.69-34.85,14.62-3.56,2.73-8.4,3.78-12.65,5.6L906.7-1669l14.71-14.4-0.61-5.71-0.2.33,6.29,0.3,14.31-14.66-0.52.4Z" transform="translate(-652.69 2587.18)" fill="#1d1d1b"/><path d="M903.3-1716c-16.28,12.89-32.49,25.88-48.93,38.56-2.22,1.71-5.63,1.86-8.49,2.74,1.27-3.11,1.64-7.45,3.95-9.13,16.66-12.12,33.71-23.69,50.63-35.44Z" transform="translate(-652.69 2587.18)" fill="#1d1d1b"/><path d="M716-1824.73a15.52,15.52,0,0,1,2-1.36c5.71-2.72,11.44-5.39,17.16-8.08,0.22,2,1.11,4.15.55,5.87-2.34,7.24-3.29,16.43-15.07,12.82-1.45-.44-3.19.08-4.8,0.16l0.49,0.44q0-5.21,0-10.43Z" transform="translate(-652.69 2587.18)" fill="#1d1d1b"/><path d="M749.67-2049.2c-0.82-11.43-1.67-22.85-2.28-34.29,0-.27,2.59-0.68,4-1l0.23,33.87Z" transform="translate(-652.69 2587.18)" fill="#1d1d1b"/><path d="M757.26-2122.09l-5,23.31c-1.2-7.9-3.55-15.83-3.29-23.68,0.33-9.75,2.82-19.42,4.37-29.13Z" transform="translate(-652.69 2587.18)" fill="#1d1d1b"/><path d="M952.21-1725.84l-11.54,23.14,0.52-.4-10.29,0,0.39,0.32,18.41-25.42Z" transform="translate(-652.69 2587.18)" fill="#1d1d1b"/><path d="M859.82-1654.08c-4.66,4.43-7.75,7.65-11.25,10.34-0.48.37-3-1.92-4.6-3,3.11-3.29,6.08-6.74,9.47-9.71C854-1656.94,856.39-1655.4,859.82-1654.08Z" transform="translate(-652.69 2587.18)" fill="#1d1d1b"/><path d="M926.89-1688.44l-6.29-.3,10.7-14.06-0.39-.32Z" transform="translate(-652.69 2587.18)" fill="#1d1d1b"/><path d="M907-1668.45l-10.48-.12,7.65-8.15Z" transform="translate(-652.69 2587.18)" fill="#1d1d1b"/><path d="M949.71-1728.23l6.93-6.93-4.43,9.32Z" transform="translate(-652.69 2587.18)" fill="#1d1d1b"/><path d="M930.87-1751.81l10.19-5C941.28-1747.68,937.82-1746.16,930.87-1751.81Z" transform="translate(-652.69 2587.18)" fill="#1d1d1b"/><path d="M940.81-1756.48L951.05-1768Z" transform="translate(-652.69 2587.18)" fill="#1d1d1b"/><path d="M748.62-1789.43c-1.75,1.5-2.78,3.1-3.74,3.06-2.23-.09-4.43-1-6.64-1.54,1-.88,1.91-2.45,2.92-2.5C743.39-1790.53,745.65-1789.88,748.62-1789.43Z" transform="translate(-652.69 2587.18)" fill="#1d1d1b"/><path d="M920.79-1689.08l0.61,5.71-6-2.22Z" transform="translate(-652.69 2587.18)" fill="#1d1d1b"/><path d="M726.08-1365.48l-10-54.39C731.88-1404,725.58-1384.13,726.08-1365.48Z" transform="translate(-652.69 2587.18)" fill="#1d1d1b"/><path d="M824.53-1062c-2.77-7.29-5.71-14.52-8.19-21.91-0.62-1.84.27-4.19,0.47-6.3,1.18,0.88,3,1.51,3.45,2.67,3.18,8.07,13.09,15.2,3.82,25.16Z" transform="translate(-652.69 2587.18)" fill="#1d1d1b"/><path d="M800.87-1135.52l-5.19,3c-0.87-1.94-2.48-3.93-2.34-5.79,0.1-1.29,2.62-2.4,4.06-3.58Z" transform="translate(-652.69 2587.18)" fill="#1d1d1b"/></svg>